<svg width="92" height="25" viewBox="0 0 92 25" fill="none" xmlns="http://www.w3.org/2000/svg">
<path d="M0.45309 14.3429V11.4281C0.981399 11.8714 1.55525 12.2054 2.17465 12.4301C2.79404 12.6487 3.41951 12.758 4.05105 12.758C4.42148 12.758 4.74332 12.7246 5.01658 12.6578C5.29592 12.591 5.52668 12.4999 5.70885 12.3845C5.8971 12.2631 6.03677 12.1234 6.12785 11.9655C6.21894 11.8016 6.26449 11.6255 6.26449 11.4372C6.26449 11.1822 6.19162 10.9545 6.04588 10.7541C5.90013 10.5537 5.69974 10.3685 5.4447 10.1984C5.19572 10.0284 4.89817 9.86445 4.55204 9.70657C4.2059 9.54868 3.83244 9.38776 3.43166 9.2238C2.41148 8.79873 1.64938 8.27953 1.14536 7.6662C0.647411 7.05288 0.398438 6.31203 0.398438 5.44366C0.398438 4.76354 0.535069 4.18058 0.808332 3.69478C1.0816 3.2029 1.45202 2.79908 1.9196 2.48331C2.39326 2.16754 2.93978 1.93678 3.55918 1.79104C4.17858 1.63923 4.83441 1.56333 5.52668 1.56333C6.2068 1.56333 6.80798 1.60583 7.33021 1.69085C7.85852 1.76979 8.34432 1.89428 8.78761 2.06431V4.78783C8.569 4.63602 8.32914 4.50242 8.06802 4.38704C7.81298 4.27167 7.54882 4.17754 7.27556 4.10467C7.0023 4.02573 6.72903 3.96804 6.45577 3.93161C6.18858 3.89517 5.93353 3.87695 5.69063 3.87695C5.35664 3.87695 5.05302 3.91035 4.77976 3.97715C4.50649 4.03787 4.27574 4.12593 4.08749 4.2413C3.89924 4.35668 3.7535 4.49635 3.65027 4.66031C3.54704 4.81819 3.49542 4.99733 3.49542 5.19772C3.49542 5.41634 3.55311 5.61369 3.66849 5.78979C3.78386 5.95983 3.94782 6.12378 4.16036 6.28167C4.3729 6.43348 4.63098 6.58529 4.93461 6.73711C5.23823 6.88285 5.58133 7.03466 5.9639 7.19255C6.48613 7.41116 6.95372 7.64495 7.36665 7.89392C7.78565 8.13682 8.14393 8.41312 8.44148 8.72282C8.73903 9.03252 8.96675 9.38776 9.12464 9.78854C9.28253 10.1833 9.36147 10.6448 9.36147 11.1731C9.36147 11.9018 9.2218 12.5151 8.94246 13.0131C8.6692 13.5049 8.29574 13.9057 7.82209 14.2154C7.34843 14.519 6.79583 14.7376 6.16429 14.8712C5.53882 15.0048 4.87692 15.0716 4.17858 15.0716C3.46202 15.0716 2.77886 15.0109 2.1291 14.8895C1.48542 14.768 0.926746 14.5858 0.45309 14.3429Z" fill="#2D81F7"/>
<path d="M19.6088 11H13.5242C13.6213 12.3542 14.4745 13.0313 16.0837 13.0313C17.11 13.0313 18.0118 12.7884 18.789 12.3026V14.3794C17.9267 14.8409 16.8064 15.0716 15.4279 15.0716C13.9219 15.0716 12.753 14.6557 11.921 13.8237C11.0891 12.9857 10.6731 11.8198 10.6731 10.326C10.6731 8.77747 11.1225 7.55082 12.0212 6.64602C12.92 5.74121 14.0252 5.28881 15.3368 5.28881C16.6971 5.28881 17.7476 5.69263 18.4885 6.50028C19.2354 7.30792 19.6088 8.40401 19.6088 9.78854V11ZM16.94 9.23291C16.94 7.89696 16.3995 7.22898 15.3186 7.22898C14.8571 7.22898 14.4563 7.42026 14.1162 7.80283C13.7823 8.1854 13.5788 8.66209 13.506 9.23291H16.94Z" fill="#2D81F7"/>
<path d="M24.1997 14.8439H21.3213V1.03502H24.1997V14.8439Z" fill="#2D81F7"/>
<path d="M32.7072 3.23934C32.3368 3.0936 31.9816 3.02073 31.6415 3.02073C30.7185 3.02073 30.257 3.52171 30.257 4.52368V5.51653H32.3884V7.63888H30.257V14.8439H27.3877V7.63888H25.821V5.51653H27.3877V4.35972C27.3877 3.29703 27.7339 2.4408 28.4261 1.79104C29.1184 1.14129 30.0596 0.816406 31.2498 0.816406C31.8328 0.816406 32.3186 0.877131 32.7072 0.998582V3.23934Z" fill="#2D81F7"/>
<path d="M34.1198 14.3431V11.4283C34.6481 11.8716 35.222 12.2055 35.8414 12.4302C36.4608 12.6488 37.0863 12.7581 37.7178 12.7581C38.0882 12.7581 38.4101 12.7247 38.6833 12.6579C38.9627 12.5911 39.1934 12.5001 39.3756 12.3847C39.5638 12.2632 39.7035 12.1236 39.7946 11.9657C39.8857 11.8017 39.9312 11.6256 39.9312 11.4374C39.9312 11.1823 39.8584 10.9546 39.7126 10.7542C39.5669 10.5538 39.3665 10.3686 39.1114 10.1986C38.8625 10.0285 38.5649 9.86459 38.2188 9.70671C37.8727 9.54882 37.4992 9.3879 37.0984 9.22394C36.0782 8.79886 35.3161 8.27966 34.8121 7.66634C34.3142 7.05302 34.0652 6.31217 34.0652 5.4438C34.0652 4.76368 34.2018 4.18072 34.4751 3.69492C34.7483 3.20304 35.1188 2.79922 35.5864 2.48345C36.06 2.16768 36.6065 1.93692 37.2259 1.79118C37.8453 1.63937 38.5012 1.56346 39.1934 1.56346C39.8735 1.56346 40.4747 1.60597 40.997 1.69099C41.5253 1.76993 42.0111 1.89442 42.4544 2.06445V4.78797C42.2358 4.63616 41.9959 4.50256 41.7348 4.38718C41.4797 4.27181 41.2156 4.17768 40.9423 4.10481C40.669 4.02587 40.3958 3.96818 40.1225 3.93175C39.8553 3.89531 39.6003 3.87709 39.3574 3.87709C39.0234 3.87709 38.7198 3.91049 38.4465 3.97729C38.1732 4.03801 37.9425 4.12607 37.7542 4.24144C37.566 4.35682 37.4202 4.49649 37.317 4.66045C37.2138 4.81833 37.1622 4.99747 37.1622 5.19786C37.1622 5.41647 37.2199 5.61383 37.3352 5.78993C37.4506 5.95996 37.6146 6.12392 37.8271 6.28181C38.0396 6.43362 38.2977 6.58543 38.6014 6.73725C38.905 6.88299 39.2481 7.0348 39.6306 7.19269C40.1529 7.4113 40.6205 7.64509 41.0334 7.89406C41.4524 8.13696 41.8107 8.41326 42.1082 8.72296C42.4058 9.03266 42.6335 9.3879 42.7914 9.78868C42.9493 10.1834 43.0282 10.6449 43.0282 11.1732C43.0282 11.9019 42.8885 12.5152 42.6092 13.0132C42.3359 13.5051 41.9625 13.9058 41.4888 14.2155C41.0152 14.5192 40.4626 14.7378 39.831 14.8714C39.2056 15.005 38.5437 15.0718 37.8453 15.0718C37.1288 15.0718 36.4456 15.011 35.7959 14.8896C35.1522 14.7681 34.5935 14.586 34.1198 14.3431Z" fill="#08BD80"/>
<path d="M50.5338 14.7347C50.1088 14.9594 49.4681 15.0718 48.6119 15.0718C46.5837 15.0718 45.5696 14.0182 45.5696 11.911V7.63901H44.0575V5.51667H45.5696V3.50363L48.4388 2.68384V5.51667H50.5338V7.63901H48.4388V11.41C48.4388 12.3816 48.8244 12.8674 49.5956 12.8674C49.8993 12.8674 50.212 12.7794 50.5338 12.6033V14.7347Z" fill="#08BD80"/>
<path d="M61.0271 14.8441H58.1579V13.4231H58.1123C57.4019 14.5222 56.4515 15.0718 55.2613 15.0718C53.0995 15.0718 52.0186 13.7631 52.0186 11.1459V5.51667H54.8878V10.8908C54.8878 12.2086 55.4101 12.8674 56.4545 12.8674C56.9707 12.8674 57.3836 12.6883 57.6933 12.33C58.003 11.9657 58.1579 11.4738 58.1579 10.8544V5.51667H61.0271V14.8441Z" fill="#08BD80"/>
<path d="M72.5862 14.8441H69.7078V13.5597H69.6714C69.0155 14.5678 68.053 15.0718 66.7839 15.0718C65.618 15.0718 64.6798 14.6619 63.9693 13.8421C63.2588 13.0162 62.9036 11.8655 62.9036 10.3899C62.9036 8.84745 63.2952 7.61169 64.0786 6.68259C64.8619 5.7535 65.8882 5.28895 67.1573 5.28895C68.3597 5.28895 69.1977 5.7201 69.6714 6.5824H69.7078V1.03516H72.5862V14.8441ZM69.7625 10.3079V9.60651C69.7625 8.99926 69.5864 8.49524 69.2341 8.09445C68.8819 7.69367 68.4235 7.49327 67.8587 7.49327C67.2211 7.49327 66.7232 7.74528 66.3649 8.2493C66.0066 8.74725 65.8275 9.43344 65.8275 10.3079C65.8275 11.1277 66.0005 11.7592 66.3467 12.2025C66.6928 12.6458 67.1725 12.8674 67.7859 12.8674C68.3688 12.8674 68.8425 12.6337 69.2068 12.1661C69.5772 11.6985 69.7625 11.0791 69.7625 10.3079Z" fill="#08BD80"/>
<path d="M83.8902 5.51667L80.1009 15.591C79.19 18.0139 77.8176 19.2254 75.9837 19.2254C75.2854 19.2254 74.7116 19.1464 74.2622 18.9885V16.6931C74.6448 16.9178 75.0607 17.0302 75.5101 17.0302C76.2509 17.0302 76.7671 16.681 77.0586 15.9826L77.5505 14.8258L73.7612 5.51667H76.9493L78.6891 11.1914C78.7984 11.5436 78.8834 11.9596 78.9441 12.4393H78.9805C79.0352 12.0871 79.1354 11.6772 79.2811 11.2097L81.0391 5.51667H83.8902Z" fill="#08BD80"/>
<path d="M84.4367 14.5981V12.2663C84.9103 12.5517 85.381 12.7642 85.8485 12.9039C86.3222 13.0436 86.7685 13.1134 87.1875 13.1134C87.6976 13.1134 88.0984 13.0436 88.3899 12.9039C88.6874 12.7642 88.8362 12.5517 88.8362 12.2663C88.8362 12.0841 88.7694 11.9323 88.6358 11.8108C88.5022 11.6894 88.3292 11.5831 88.1166 11.492C87.9102 11.4009 87.6824 11.319 87.4335 11.2461C87.1845 11.1732 86.9446 11.0912 86.7139 11.0002C86.3435 10.8605 86.0155 10.7117 85.7301 10.5538C85.4508 10.3899 85.214 10.2016 85.0196 9.98908C84.8314 9.77654 84.6857 9.5306 84.5824 9.25127C84.4853 8.97193 84.4367 8.64098 84.4367 8.25841C84.4367 7.73618 84.549 7.28681 84.7737 6.91031C85.0045 6.53382 85.3081 6.22716 85.6846 5.99033C86.0672 5.74743 86.5013 5.57132 86.9871 5.46202C87.479 5.34664 87.9891 5.28895 88.5174 5.28895C88.9303 5.28895 89.3493 5.32235 89.7744 5.38915C90.1995 5.44987 90.6185 5.54096 91.0314 5.66241V7.88495C90.6671 7.67241 90.2754 7.51453 89.8564 7.4113C89.4435 7.30199 89.0366 7.24734 88.6358 7.24734C88.4476 7.24734 88.2684 7.26555 88.0984 7.30199C87.9345 7.33235 87.7887 7.38093 87.6612 7.44773C87.5337 7.50846 87.4335 7.59043 87.3606 7.69367C87.2877 7.79083 87.2513 7.90317 87.2513 8.03069C87.2513 8.20072 87.3059 8.34646 87.4153 8.46791C87.5246 8.58936 87.6673 8.69563 87.8434 8.78672C88.0195 8.87174 88.2138 8.95068 88.4263 9.02355C88.6449 9.09035 88.8605 9.16018 89.073 9.23305C89.4556 9.36664 89.8018 9.51239 90.1115 9.67027C90.4211 9.82816 90.6853 10.0134 90.9039 10.2259C91.1286 10.4384 91.2986 10.6874 91.414 10.9728C91.5355 11.2582 91.5962 11.5983 91.5962 11.993C91.5962 12.5456 91.4747 13.0193 91.2318 13.414C90.995 13.8026 90.6762 14.1214 90.2754 14.3704C89.8807 14.6133 89.4222 14.7894 88.9 14.8987C88.3838 15.0141 87.8464 15.0718 87.2877 15.0718C86.2615 15.0718 85.3111 14.9139 84.4367 14.5981Z" fill="#08BD80"/>
<path d="M75.8225 24.8077C75.6993 24.8077 75.5935 24.7635 75.5051 24.6751C75.4193 24.5867 75.3765 24.4808 75.3765 24.3576C75.3765 24.2344 75.4193 24.1285 75.5051 24.0401C75.5935 23.9491 75.6993 23.9035 75.8225 23.9035C75.9484 23.9035 76.0556 23.9491 76.144 24.0401C76.2324 24.1285 76.2766 24.2344 76.2766 24.3576C76.2766 24.4808 76.2324 24.5867 76.144 24.6751C76.0556 24.7635 75.9484 24.8077 75.8225 24.8077Z" fill="#2A2B2B"/>
<path d="M80.1827 24.5304C79.8666 24.7206 79.4915 24.8157 79.0575 24.8157C78.4708 24.8157 77.9966 24.6255 77.6349 24.2451C77.2759 23.862 77.0964 23.3664 77.0964 22.7582C77.0964 22.0804 77.2906 21.5366 77.6791 21.1267C78.0676 20.7141 78.586 20.5078 79.2343 20.5078C79.596 20.5078 79.9148 20.5748 80.1907 20.7087V21.3839C79.8853 21.1695 79.5585 21.0624 79.2102 21.0624C78.7896 21.0624 78.444 21.2137 78.1734 21.5165C77.9055 21.8165 77.7715 22.2117 77.7715 22.702C77.7715 23.1842 77.8975 23.5646 78.1493 23.8432C78.4038 24.1219 78.744 24.2612 79.17 24.2612C79.529 24.2612 79.8666 24.1419 80.1827 23.9035V24.5304Z" fill="#2A2B2B"/>
<path d="M82.8992 24.8157C82.2911 24.8157 81.8048 24.6242 81.4405 24.2411C81.0788 23.8553 80.898 23.3449 80.898 22.71C80.898 22.0188 81.0869 21.479 81.4646 21.0905C81.8424 20.702 82.3527 20.5078 82.9957 20.5078C83.6092 20.5078 84.0874 20.6967 84.4303 21.0744C84.7759 21.4522 84.9487 21.9759 84.9487 22.6457C84.9487 23.3021 84.7625 23.8285 84.3901 24.225C84.0204 24.6188 83.5235 24.8157 82.8992 24.8157ZM82.9475 21.0624C82.5242 21.0624 82.1893 21.207 81.9428 21.4964C81.6963 21.783 81.5731 22.1795 81.5731 22.6859C81.5731 23.1735 81.6977 23.5579 81.9468 23.8392C82.196 24.1205 82.5295 24.2612 82.9475 24.2612C83.3734 24.2612 83.7003 24.1232 83.928 23.8472C84.1584 23.5713 84.2736 23.1788 84.2736 22.6698C84.2736 22.1554 84.1584 21.7589 83.928 21.4803C83.7003 21.2017 83.3734 21.0624 82.9475 21.0624Z" fill="#2A2B2B"/>
<path d="M91.8446 24.7193H91.1855V22.3564C91.1855 21.9009 91.1145 21.5714 90.9726 21.3678C90.8332 21.1642 90.5975 21.0624 90.2653 21.0624C89.984 21.0624 89.7442 21.191 89.546 21.4482C89.3504 21.7053 89.2526 22.0134 89.2526 22.3724V24.7193H88.5936V22.276C88.5936 21.4669 88.2814 21.0624 87.6572 21.0624C87.3679 21.0624 87.1295 21.1843 86.9419 21.4281C86.7544 21.6692 86.6606 21.984 86.6606 22.3724V24.7193H86.0016V20.6043H86.6606V21.2553H86.6767C86.9687 20.757 87.3947 20.5078 87.9546 20.5078C88.2359 20.5078 88.481 20.5868 88.69 20.7449C88.899 20.9003 89.0423 21.1052 89.12 21.3598C89.4254 20.7918 89.8808 20.5078 90.4863 20.5078C91.3918 20.5078 91.8446 21.0664 91.8446 22.1836V24.7193Z" fill="#2A2B2B"/>
</svg>
