<svg width="125" height="125" viewBox="0 0 125 125" fill="none" xmlns="http://www.w3.org/2000/svg">
<path opacity="0.2" d="M118.268 58.1778C118.268 89.3105 93.0314 114.549 61.9017 114.549C30.7718 114.549 5.53516 89.3206 5.53516 58.1882C5.53516 27.0556 30.7823 1.81641 61.9017 1.81641C93.0213 1.81641 118.268 27.0454 118.268 58.1778Z" fill="white" stroke="#D9DADB" stroke-width="2"/>
<path opacity="0.1" d="M61.9003 102.22C86.2232 102.22 105.941 82.5002 105.941 58.1752C105.941 33.8501 86.2128 14.1406 61.9003 14.1406C37.5775 14.1406 17.8594 33.8605 17.8594 58.1856C17.8594 82.5106 37.5775 102.22 61.9003 102.22Z" fill="#2D81F7"/>
<path opacity="0.1" d="M61.9542 89.6753C79.3751 89.6753 93.5011 75.5793 93.5011 58.1775C93.5011 40.7757 79.3751 26.6797 61.9542 26.6797C44.5332 26.6797 30.4072 40.7757 30.4072 58.1775C30.4072 75.5793 44.5332 89.6753 61.9542 89.6753Z" fill="#2D81F7"/>
<path d="M31.7302 91.7982C31.9987 91.1974 32.6969 90.9292 33.2984 91.2081L38.4756 93.5575C39.0771 93.8256 39.3349 94.5444 39.0556 95.1451L36.0051 101.528C35.7258 102.118 35.0169 102.365 34.4369 102.086L29.453 99.7257C28.873 99.4468 28.6152 98.7603 28.8838 98.181L31.7302 91.7982Z" fill="#4F4F4F"/>
<path d="M79.5395 76.5415C79.3247 78.0433 72.3967 87.6551 62.7297 90.5944C53.0627 93.5337 53.4064 95.0999 51.7201 98.6936C49.8404 102.706 43.7609 124.815 43.7609 124.815H16.6504L36.3818 89.5431C36.3818 89.5431 34.964 83.4499 36.3818 67.7879C37.37 64.1084 39.4967 63.5934 40.3238 57.6826C41.1938 56.5241 42.9661 49.1758 43.1272 48.7252C43.1916 48.5321 43.7287 48.221 44.4161 48.221C44.9747 48.221 46.5858 49.7443 46.8221 50.8385C48.0251 56.3953 45.8984 58.6481 45.9199 58.8197C46.3388 63.0892 45.9306 66.2646 46.8221 67.1013C46.8544 67.1335 46.9188 67.1228 47.0047 67.0584C50.2808 62.3705 58.4977 56.5241 60.4096 54.99C62.3216 53.456 76.7468 42.9109 79.1314 41.8167C81.5803 40.6045 83.5997 42.3746 80.8392 45.2495C80.141 45.9468 64.6309 62.0594 64.9961 62.4241C67.8317 75.9514 79.7544 75.0396 79.5395 76.5415Z" fill="#FFBE9D"/>
<path d="M48.756 108.594L30.6035 99.7765L32.3651 95.625L50.5605 102.759L48.756 108.594Z" fill="#F2C2AB"/>
<path d="M32.7186 92.7397C32.8689 92.4179 33.2449 92.2677 33.5671 92.4179L52.1707 100.817C52.4715 100.957 52.6218 101.3 52.5144 101.622L50.5273 107.275C50.3984 107.629 50.001 107.801 49.6573 107.651L30.4844 99.2727C30.1514 99.1333 30.0118 98.7471 30.1514 98.4145L32.7186 92.7397Z" fill="#333333"/>
<path d="M43.592 101.974L44.4131 102.32L45.208 100.443L44.3869 100.096L43.592 101.974Z" fill="#1F1F1F"/>
<path d="M46.7014 103.265L47.2949 103.516L48.0898 101.638L47.4963 101.388L46.7014 103.265Z" fill="#1F1F1F"/>
<path d="M49.0637 104.335L49.6572 104.586L50.4521 102.709L49.8586 102.458L49.0637 104.335Z" fill="#1F1F1F"/>
<path d="M42.9111 95.8174L47.8842 98.0916C48.0346 98.1667 48.1098 98.3491 48.0238 98.4993C47.9486 98.6387 47.7768 98.7031 47.6264 98.6387L44.2107 97.1154C43.9959 97.0189 43.7381 97.1154 43.6415 97.3407L41.0206 103.477C40.9347 103.691 41.0206 103.938 41.2355 104.035L44.5115 105.536C44.6296 105.59 44.6833 105.73 44.6511 105.848C44.6082 105.987 44.447 106.062 44.3074 105.998L39.3665 103.809C39.098 103.691 38.9691 103.37 39.098 103.101L42.2021 96.0963C42.3096 95.8067 42.6318 95.6887 42.9111 95.8174Z" fill="white"/>
<path d="M41.87 99.0273L44.6305 100.229L43.8894 101.945L41.1289 100.744L41.87 99.0273Z" fill="url(#paint0_linear_2276_1732)"/>
<path d="M42.7724 49.5938L41.6875 53.9276C41.6875 53.9276 42.8798 54.2924 43.4705 53.9705C44.0613 53.638 44.362 49.7439 42.7724 49.5938Z" fill="#FFEEE3"/>
<path d="M43.4705 53.9692C42.8798 54.3017 41.6875 53.9262 41.6875 53.9262L41.8057 53.4542C42.2031 53.5401 42.869 53.2719 43.1375 52.993C43.6853 52.4351 43.8357 51.2337 43.4598 50C44.2439 51.0298 43.9539 53.6902 43.4705 53.9692Z" fill="#FFE2CF"/>
<path d="M79.314 76.1098L73.9972 74.2969C73.9972 74.2862 73.9972 74.2647 73.9972 74.254C70.5493 72.6878 66.4999 69.5768 64.9962 62.4324C64.9854 62.4216 64.9854 62.4109 64.9962 62.3787C64.9102 62.2929 74.878 51.5655 76.1669 50.1173L75.9736 43.7773C72.1497 46.1588 50.5064 61.5634 47.0156 67.0559C46.9296 67.1095 46.8652 67.131 46.833 67.0988C45.9414 66.2621 45.9307 58.7958 45.9307 58.7958C45.9307 58.785 45.9629 58.6885 46.0166 58.5919C46.0489 58.5383 46.6826 57.6587 46.9081 56.4786C46.9189 56.4465 46.9296 56.4143 46.9296 56.3821C46.9511 56.2748 46.9726 56.1783 46.9941 56.0603C47.0263 55.9101 47.0585 55.7384 47.08 55.5775C47.1122 55.3844 47.1337 55.1913 47.1444 54.9875C47.1552 54.9017 47.1552 54.8266 47.1659 54.7408C47.1659 54.6872 47.1767 54.6335 47.1767 54.5799C47.1767 54.537 47.1767 54.4833 47.1874 54.4404C47.1874 54.3975 47.1874 54.3653 47.1874 54.3331C47.1874 54.3224 47.1874 54.3117 47.1874 54.3117V54.301C47.1874 54.2581 47.1874 54.2044 47.1874 54.1615C47.1874 54.0757 47.1874 53.9791 47.1874 53.8933C47.1874 53.8397 47.1874 53.786 47.1874 53.7217C47.1874 53.6144 47.1767 53.5071 47.1767 53.3999C47.1659 53.2389 47.1552 53.0673 47.1444 52.8957C47.1444 52.842 47.1337 52.7777 47.1337 52.724C47.1337 52.6811 47.123 52.6382 47.123 52.5953C47.123 52.5524 47.1122 52.5095 47.1122 52.4666C47.1015 52.4022 47.1015 52.3378 47.0907 52.2735C47.08 52.2198 47.08 52.1555 47.0693 52.1018C47.0478 51.9838 47.037 51.8658 47.0156 51.7478C47.0048 51.6727 46.9941 51.5869 46.9726 51.5118L46.9618 51.4582C46.9511 51.3724 46.9296 51.2758 46.9081 51.1793C46.8867 51.0613 46.8652 50.9433 46.833 50.8253C46.79 50.6107 46.5644 50.2138 46.4355 49.9885C46.8544 52.9708 45.4796 59.1283 44.8566 64.0844C43.6966 73.3422 44.8566 83.9623 45.9737 85.5715C48.036 87.6097 51.6772 89.0042 57.5633 88.1031C58.9704 87.8886 69.4752 87.7277 75.6191 82.203C77.6814 79.9717 78.9488 77.7941 79.5504 76.732C79.69 76.496 79.5718 76.1957 79.314 76.1098Z" fill="#F6B797"/>
<path d="M46.6279 71.918C47.4765 73.1945 48.1102 74.5998 48.5935 76.048L48.7761 76.5951C48.8299 76.7775 48.8836 76.9599 48.9373 77.153C49.0339 77.5284 49.1306 77.8932 49.2165 78.2686C49.3776 79.0195 49.4958 79.7812 49.571 80.5536C49.6247 81.3259 49.6569 82.109 49.6032 82.8814C49.5388 83.6645 49.4314 84.4476 49.2058 85.1985C49.1521 85.3916 49.0876 85.574 49.0232 85.7564C48.9587 85.9387 48.8836 86.1211 48.7976 86.3035C48.7117 86.4858 48.6258 86.6575 48.5291 86.8291C48.4324 87.0007 48.325 87.1724 48.2283 87.3333C47.788 87.9877 47.2509 88.567 46.6172 88.9961L46.5742 88.9531C47.122 88.4382 47.5839 87.8375 47.9276 87.1724C48.2821 86.5073 48.5291 85.7993 48.701 85.0698C49.0447 83.6109 49.0554 82.0876 48.9265 80.5965C48.7976 79.1053 48.5076 77.625 48.1102 76.166C47.7128 74.7178 47.1972 73.2911 46.5742 71.9287L46.6279 71.918Z" fill="#F6B08D"/>
<path d="M45.9519 58.7787C45.7586 58.7894 45.576 58.7894 45.3826 58.7894C45.1893 58.7787 45.0067 58.768 44.8134 58.7465C44.62 58.725 44.4267 58.7143 44.2441 58.6499C44.0615 58.5856 43.8789 58.4998 43.7393 58.3496L43.75 58.3281L44.2978 58.4354C44.4804 58.4676 44.6523 58.5319 44.8349 58.5641C45.0175 58.607 45.2 58.6392 45.3826 58.6607C45.5652 58.6929 45.7586 58.7143 45.9412 58.7358L45.9519 58.7787Z" fill="#F6B08D"/>
<path d="M47.6494 47.0508C47.4238 47.0508 47.252 47.2331 47.2412 47.4477L47.2305 49.7648C47.2305 49.9901 47.4131 50.1617 47.6279 50.1725L47.6494 47.0508Z" fill="#666363"/>
<path d="M47.6279 51.082C47.4023 51.082 47.2305 51.2644 47.2197 51.4789L47.209 53.7961C47.209 54.0213 47.3916 54.193 47.6064 54.2037L47.6279 51.082Z" fill="#666363"/>
<path d="M75.3184 47.0547C75.5439 47.0547 75.7158 47.2371 75.7158 47.4623L75.6943 54.403C75.6943 54.6283 75.5117 54.7999 75.2861 54.7999L75.3184 47.0547Z" fill="#666363"/>
<path d="M75.1136 40.5063C75.1243 37.095 75.1243 35.3893 74.308 34.1879C74.0395 33.8017 73.7173 33.4584 73.3521 33.1795C72.2135 32.3106 70.5916 32.2998 67.3478 32.2998L55.7474 32.2677C52.5036 32.2569 50.8817 32.2569 49.7431 33.1259C49.3779 33.4048 49.0557 33.748 48.7872 34.1342C47.9601 35.325 47.9494 37.0306 47.9386 40.442L47.8205 77.752C47.8097 81.1633 47.8097 82.869 48.626 84.0705C48.8946 84.4567 49.2168 84.7999 49.582 85.0788C50.7206 85.9478 52.3425 85.9585 55.5863 85.9585L67.1867 85.9907C70.4305 86.0014 72.0524 86.0014 73.1909 85.1325C73.5561 84.8536 73.8784 84.5103 74.1469 84.1241C74.974 82.9334 74.9847 81.2277 74.9954 77.8164L75.1136 40.5063Z" fill="#333333"/>
<path fill-rule="evenodd" clip-rule="evenodd" d="M55.5647 32.5805L67.4122 32.6127C69.077 32.6127 70.2908 32.6234 71.236 32.7307C72.1705 32.838 72.7827 33.0418 73.2768 33.4172C73.6098 33.6747 73.9105 33.9858 74.1576 34.3291C74.512 34.844 74.7054 35.4876 74.802 36.4531C74.8987 37.4293 74.8987 38.6951 74.888 40.4223L74.7698 78.0327C74.7698 79.7598 74.7591 81.0256 74.6517 82.0018C74.5443 82.9673 74.3509 83.6109 73.9857 84.1259C73.7387 84.4799 73.4379 84.7802 73.1049 85.0377C72.6109 85.4132 71.9986 85.6062 71.0534 85.7135C70.1082 85.8208 68.8944 85.8101 67.2296 85.8101L55.3821 85.7779C53.7173 85.7779 52.5035 85.7672 51.5583 85.6599C50.6238 85.5526 50.0116 85.3488 49.5175 84.9733C49.1845 84.7159 48.8838 84.4048 48.6367 84.0615C48.2823 83.5466 48.0889 82.9029 47.9923 81.9375C47.8956 80.9613 47.8956 79.6954 47.9063 77.9683L48.0245 40.3579C48.0245 38.6308 48.0352 37.3649 48.1426 36.3887C48.25 35.4233 48.4434 34.7796 48.8086 34.2647C49.0556 33.9107 49.3564 33.6103 49.6893 33.3529C50.1834 32.9774 50.7957 32.7843 51.7409 32.6771C52.6861 32.5805 53.8999 32.5805 55.5647 32.5805ZM74.512 34.0609C75.3498 35.2624 75.3498 36.9895 75.3391 40.4223L75.2102 78.0327C75.1995 81.4655 75.1995 83.1926 74.3509 84.394C74.0824 84.7802 73.7494 85.1235 73.3735 85.4024C72.2134 86.2713 70.5593 86.2713 67.2403 86.2606L55.3929 86.2284C52.0846 86.2177 50.4305 86.2177 49.2704 85.3381C48.8945 85.0591 48.5723 84.7159 48.293 84.319C47.4552 83.1068 47.4552 81.3904 47.4659 77.9576L47.5841 40.3472C47.5948 36.9144 47.5948 35.1873 48.4434 33.9858C48.7119 33.5996 49.0449 33.2563 49.4208 32.9774C50.5809 32.1085 52.235 32.1085 55.554 32.1192L67.4014 32.1514C70.7097 32.1621 72.3638 32.1621 73.5238 33.0418C73.9105 33.3314 74.2328 33.6747 74.512 34.0609Z" fill="url(#paint1_linear_2276_1732)"/>
<path d="M73.9001 40.1885C73.9109 37.453 73.9109 36.0906 73.2234 35.1251C72.9979 34.814 72.7293 34.5458 72.4178 34.3206C71.4619 33.6233 70.087 33.6233 67.348 33.6125L55.6188 33.5804C52.8798 33.5696 51.5157 33.5696 50.549 34.2669C50.2375 34.4922 49.9689 34.7604 49.7434 35.0715C49.0452 36.0262 49.0345 37.3993 49.0345 40.1348L48.9163 78.0778C48.9056 80.8133 48.9056 82.1757 49.593 83.1411C49.8186 83.4522 50.0871 83.7204 50.3986 83.9457C51.3545 84.643 52.7294 84.643 55.4684 84.6537L67.1977 84.6859C69.9366 84.6966 71.3008 84.6966 72.2675 83.9993C72.579 83.7741 72.8475 83.5059 73.073 83.1948C73.7712 82.24 73.782 80.8669 73.782 78.1314L73.9001 40.1885Z" fill="url(#paint2_linear_2276_1732)"/>
<path d="M58.7987 34.8779L61.3981 34.8672C61.9351 34.8672 62.3755 35.307 62.3863 35.8434C62.3863 36.3798 61.9459 36.8196 61.4088 36.8303L58.8095 36.841C58.2724 36.841 57.832 36.4012 57.8213 35.8648C57.8213 35.3285 58.2617 34.8886 58.7987 34.8779Z" fill="#333333"/>
<path d="M64.9153 35.848C64.9139 35.3267 64.504 34.9051 63.9998 34.9064C63.4955 34.9078 63.0879 35.3315 63.0893 35.8529C63.0907 36.3742 63.5006 36.7958 64.0048 36.7945C64.509 36.7931 64.9167 36.3694 64.9153 35.848Z" fill="#333333"/>
<path d="M80.7634 57.4788L81.0105 57.8328C81.7301 58.8734 81.612 59.8817 81.2145 60.4288C80.8171 60.9759 80.5056 61.2334 79.3671 61.8234L74.8665 64.1191C74.3617 64.5053 72.2887 65.0416 71.3757 63.6042C71.1716 63.1643 70.3231 61.4801 71.9557 60.3216C71.9557 60.3216 74.4369 58.4764 76.6818 57.275C78.3252 56.3953 79.6463 55.6122 80.7634 57.4788Z" fill="#FFBE9D"/>
<path d="M71.5787 62.3055C71.2887 61.7799 71.4606 61.1148 71.9761 60.8037L73.018 60.1815C74.2318 59.6344 74.7473 59.9777 75.1877 60.75C75.6281 61.5224 75.3596 62.5201 74.5969 62.9813L73.3939 63.7108C72.975 63.9683 72.438 63.8288 72.2017 63.3997L71.5787 62.3055Z" fill="#FFEEE3"/>
<path fill-rule="evenodd" clip-rule="evenodd" d="M72.7927 63.787C73.0398 63.8836 73.319 63.8621 73.5661 63.7119L74.8765 62.8859C75.6176 62.4139 75.8647 61.427 75.4243 60.6653C75.1021 60.1182 74.5113 59.8393 73.9205 59.9144L74.1461 60.3113C74.7691 61.3626 74.4361 62.7572 73.3942 63.4115L72.7927 63.787Z" fill="#FFE2CF"/>
<path d="M80.3972 66.6723L80.5691 67.037C81.0632 68.1098 80.8698 69.0645 80.4831 69.5365C80.0965 70.0085 79.8172 70.2123 78.8075 70.6307L74.7796 71.9824C72.7818 72.5187 72.1588 71.3387 71.9547 70.9525C71.654 70.2874 71.5788 69.0752 72.9107 68.2063C72.8999 68.2063 78.9686 63.5292 80.3972 66.6723Z" fill="#FFBE9D"/>
<path d="M72.2989 70.0937C72.0518 69.5788 72.2774 68.9566 72.793 68.7099L73.7489 68.2593C74.3934 67.959 75.1667 68.2271 75.4782 68.8815C75.779 69.5252 75.5105 70.2975 74.8553 70.6086L73.7274 71.145C73.2978 71.3488 72.793 71.1665 72.5996 70.7374L72.2989 70.0937Z" fill="#FFEEE3"/>
<path fill-rule="evenodd" clip-rule="evenodd" d="M73.0295 71.1562C73.2444 71.242 73.5021 71.2421 73.7277 71.1348L74.92 70.5662C75.5644 70.2551 75.8222 69.4935 75.5 68.8606C75.2637 68.3886 74.7589 68.1204 74.254 68.1418L74.3829 68.3993C74.8663 69.3326 74.4796 70.4589 73.5344 70.9095L73.0295 71.1562Z" fill="#FFE2CF"/>
<path d="M78.2932 78.7499C78.2932 78.7499 78.4543 77.3875 76.8969 77.7629C75.3394 78.1384 73.7927 78.9108 73.7927 78.9108C72.7293 79.2004 71.7519 78.3744 71.3759 77.8058L71.2685 77.4089C70.9678 75.832 77.1009 73.7187 77.1009 73.7187C78.3362 73.429 79.2814 74.062 79.5714 75.124L79.6788 75.5209C80.1299 76.7653 78.6799 78.1813 78.2932 78.7499Z" fill="#FFBE9D"/>
<path d="M71.7412 77.4527C71.5479 77.0451 71.7197 76.5516 72.1386 76.3478L72.9013 75.9831C73.4168 75.7363 74.0291 75.9616 74.2761 76.4765C74.5232 76.9915 74.2976 77.6029 73.782 77.8496L72.8798 78.2787C72.5468 78.4397 72.1386 78.2895 71.9775 77.9569L71.7412 77.4527Z" fill="#FFEEE3"/>
<path fill-rule="evenodd" clip-rule="evenodd" d="M72.3213 78.2882C72.4931 78.3526 72.6972 78.3526 72.8798 78.2668L73.825 77.8162C74.3406 77.5695 74.5447 76.9687 74.2869 76.4646C74.0936 76.0891 73.6962 75.8745 73.2987 75.896L73.4061 76.0998C73.7821 76.84 73.4813 77.7411 72.7295 78.1059L72.3213 78.2882Z" fill="#FFE2CF"/>
<path d="M53.6693 42.3751H53.3555L53.927 40.75H54.2969L54.8685 42.3751H54.5547L54.1176 41.075H54.1064L53.6693 42.3751ZM53.6805 41.7363H54.5435V41.9716H53.6805V41.7363Z" fill="black"/>
<path d="M55.8548 41.8623V41.1562H56.1462V42.3779H55.866V42.1649H55.8548C55.8324 42.2322 55.7876 42.2882 55.7203 42.333C55.6531 42.3779 55.5746 42.4003 55.485 42.4003C55.4065 42.4003 55.3393 42.3779 55.272 42.3442C55.216 42.3106 55.16 42.2546 55.1263 42.1873C55.0927 42.1201 55.0703 42.0304 55.0703 41.9408V41.1562H55.3617V41.8847C55.3617 41.9632 55.3841 42.0192 55.429 42.064C55.4738 42.1089 55.5298 42.1313 55.5971 42.1313C55.6419 42.1313 55.6755 42.1201 55.7203 42.0977C55.7652 42.0753 55.7876 42.0416 55.8212 42.008C55.8436 41.9744 55.8548 41.9296 55.8548 41.8623Z" fill="black"/>
<path d="M57.043 41.1547V41.3788H56.3369V41.1547H57.043ZM56.5162 40.8633H56.8076V42.0064C56.8076 42.0401 56.8188 42.0737 56.83 42.0961C56.8412 42.1185 56.8525 42.1297 56.8749 42.1409C56.8973 42.1521 56.9197 42.1521 56.9421 42.1521C56.9645 42.1521 56.9757 42.1521 56.9869 42.1521C56.9981 42.1521 57.0094 42.1521 57.0206 42.1409L57.0654 42.3651C57.0542 42.3651 57.0318 42.3763 56.9981 42.3875C56.9645 42.3987 56.9309 42.3987 56.8973 42.3987C56.83 42.3987 56.7628 42.3875 56.7068 42.3651C56.6507 42.3427 56.6059 42.2978 56.5723 42.253C56.5386 42.2082 56.5274 42.1409 56.5274 42.0625V40.8633H56.5162Z" fill="black"/>
<path d="M57.6029 41.6578V42.3751H57.3115V40.75H57.5917V41.3664H57.6029C57.6365 41.2992 57.6814 41.2431 57.7374 41.1983C57.7934 41.1535 57.8719 41.1423 57.9728 41.1423C58.0624 41.1423 58.1297 41.1647 58.1969 41.1983C58.2641 41.2319 58.309 41.288 58.3426 41.3552C58.3762 41.4224 58.3986 41.5121 58.3986 41.6018V42.3751H58.1072V41.6466C58.1072 41.5681 58.0848 41.5009 58.04 41.4561C57.9952 41.4112 57.9391 41.3888 57.8607 41.3888C57.8046 41.3888 57.7598 41.4 57.7262 41.4224C57.6926 41.4449 57.659 41.4785 57.6365 41.5121C57.6141 41.5457 57.6029 41.6018 57.6029 41.6578Z" fill="black"/>
<path d="M59.2263 42.3992C59.1031 42.3992 59.0022 42.3768 58.9125 42.3208C58.8229 42.2648 58.7556 42.1975 58.7108 42.1079C58.666 42.0182 58.6436 41.9061 58.6436 41.7716C58.6436 41.6484 58.666 41.5363 58.7108 41.4354C58.7556 41.3345 58.8229 41.2673 58.9125 41.2113C59.0022 41.1552 59.1031 41.1328 59.2151 41.1328C59.2936 41.1328 59.3608 41.144 59.4281 41.1664C59.4953 41.1889 59.5514 41.2225 59.6074 41.2785C59.6634 41.3345 59.697 41.3906 59.7307 41.469C59.7643 41.5475 59.7755 41.6371 59.7755 41.7492V41.8389H58.778V41.6484H59.5065C59.5065 41.5923 59.4953 41.5475 59.4729 41.5027C59.4505 41.4578 59.4169 41.4242 59.372 41.4018C59.3272 41.3794 59.2824 41.3682 59.2263 41.3682C59.1703 41.3682 59.1143 41.3794 59.0694 41.413C59.0246 41.4466 58.991 41.4802 58.9686 41.5251C58.9462 41.5699 58.935 41.6259 58.935 41.6708V41.8389C58.935 41.9061 58.9462 41.9734 58.9686 42.0182C58.991 42.063 59.0358 42.1079 59.0806 42.1303C59.1255 42.1527 59.1815 42.1751 59.2488 42.1751C59.2936 42.1751 59.3272 42.1639 59.3608 42.1527C59.3945 42.1415 59.4281 42.1191 59.4505 42.0966C59.4729 42.0742 59.4953 42.0406 59.5065 42.007L59.7755 42.0406C59.7531 42.1079 59.7307 42.1751 59.6746 42.2311C59.6186 42.2872 59.5626 42.3208 59.4953 42.3544C59.4057 42.388 59.316 42.3992 59.2263 42.3992Z" fill="black"/>
<path d="M60.3031 41.6562V42.3734H60.0117V41.1518H60.2919V41.3648H60.3031C60.3367 41.2975 60.3816 41.2415 60.4376 41.1967C60.4936 41.1518 60.5721 41.1406 60.6617 41.1406C60.7514 41.1406 60.8186 41.163 60.8859 41.1967C60.9531 41.2303 60.998 41.2863 61.0316 41.3536C61.0652 41.4208 61.0876 41.5105 61.0876 41.6001V42.3734H60.7962V41.645C60.7962 41.5665 60.7738 41.4993 60.729 41.4544C60.6842 41.4096 60.6281 41.3872 60.5497 41.3872C60.4936 41.3872 60.46 41.3984 60.4152 41.4208C60.3816 41.4432 60.3479 41.4768 60.3255 41.5105C60.3031 41.5441 60.3031 41.6001 60.3031 41.6562Z" fill="black"/>
<path d="M61.9951 41.1547V41.3788H61.2891V41.1547H61.9951ZM61.4572 40.8633H61.7486V42.0064C61.7486 42.0401 61.7598 42.0737 61.771 42.0961C61.7822 42.1185 61.7934 42.1297 61.8158 42.1409C61.8382 42.1521 61.8606 42.1521 61.8831 42.1521C61.9055 42.1521 61.9167 42.1521 61.9279 42.1521C61.9391 42.1521 61.9503 42.1521 61.9615 42.1409L62.0063 42.3651C61.9951 42.3651 61.9727 42.3763 61.9391 42.3875C61.9055 42.3987 61.8718 42.3987 61.8382 42.3987C61.771 42.3987 61.7037 42.3875 61.6477 42.3651C61.5917 42.3427 61.5468 42.2978 61.5132 42.253C61.4796 42.2082 61.4684 42.1409 61.4684 42.0625V40.8633H61.4572Z" fill="black"/>
<path d="M62.3781 40.9857C62.3332 40.9857 62.2884 40.9745 62.2548 40.9409C62.2212 40.9072 62.21 40.8736 62.21 40.8288C62.21 40.7839 62.2212 40.7503 62.2548 40.7167C62.2884 40.6831 62.322 40.6719 62.3781 40.6719C62.4341 40.6719 62.4677 40.6831 62.4901 40.7167C62.5238 40.7503 62.535 40.7839 62.535 40.8288C62.535 40.8736 62.5238 40.9072 62.4901 40.9409C62.4565 40.9745 62.4229 40.9857 62.3781 40.9857ZM62.2324 42.3754V41.1538H62.5238V42.3754H62.2324Z" fill="black"/>
<path d="M63.3533 42.3959C63.23 42.3959 63.1291 42.3734 63.0395 42.3174C62.9498 42.2614 62.8826 42.1941 62.8378 42.0933C62.7929 41.9924 62.7705 41.8915 62.7705 41.7682C62.7705 41.645 62.7929 41.5329 62.8378 41.4432C62.8826 41.3424 62.9498 41.2751 63.0395 41.2191C63.1291 41.163 63.23 41.1406 63.3533 41.1406C63.4542 41.1406 63.5438 41.163 63.6223 41.1967C63.7007 41.2303 63.7568 41.2863 63.8016 41.3536C63.8464 41.4208 63.8688 41.4993 63.88 41.5889H63.5999C63.5886 41.5329 63.5662 41.4768 63.5214 41.4432C63.4766 41.3984 63.4205 41.3872 63.3533 41.3872C63.2973 41.3872 63.2412 41.3984 63.1964 41.432C63.1516 41.4656 63.1179 41.5105 63.0955 41.5665C63.0731 41.6225 63.0619 41.701 63.0619 41.7794C63.0619 41.8579 63.0731 41.9363 63.0955 41.9924C63.1179 42.0484 63.1516 42.0933 63.1964 42.1269C63.2412 42.1605 63.2973 42.1717 63.3533 42.1717C63.3981 42.1717 63.4317 42.1605 63.4654 42.1493C63.499 42.1381 63.5326 42.1045 63.555 42.082C63.5774 42.0484 63.5886 42.0148 63.5999 41.97H63.88C63.8688 42.0596 63.8464 42.1381 63.8016 42.1941C63.7568 42.2614 63.7007 42.3174 63.6223 42.351C63.5438 42.3846 63.4542 42.3959 63.3533 42.3959Z" fill="black"/>
<path d="M64.4615 42.3959C64.3831 42.3959 64.3159 42.3846 64.2486 42.351C64.1814 42.3174 64.1365 42.2838 64.1029 42.2277C64.0693 42.1717 64.0469 42.1045 64.0469 42.026C64.0469 41.9588 64.0581 41.9027 64.0805 41.8579C64.1029 41.8131 64.1365 41.7794 64.1814 41.7458C64.2262 41.7234 64.271 41.701 64.3271 41.6786C64.3831 41.6674 64.4391 41.6562 64.4952 41.645C64.5624 41.6337 64.6297 41.6338 64.6745 41.6225C64.7193 41.6113 64.7529 41.6113 64.7754 41.5889C64.7978 41.5777 64.809 41.5553 64.809 41.5329C64.809 41.4768 64.7866 41.432 64.7529 41.3984C64.7193 41.3648 64.6633 41.3536 64.596 41.3536C64.5288 41.3536 64.4728 41.3648 64.4279 41.3984C64.3831 41.432 64.3607 41.4656 64.3495 41.5105L64.0805 41.4768C64.1029 41.3984 64.1365 41.3424 64.1814 41.2863C64.2262 41.2415 64.2934 41.1967 64.3607 41.1742C64.4279 41.1518 64.5064 41.1406 64.596 41.1406C64.6521 41.1406 64.7081 41.1518 64.7754 41.163C64.8314 41.1742 64.8874 41.1967 64.9323 41.2303C64.9771 41.2639 65.0219 41.3087 65.0443 41.3536C65.0667 41.3984 65.0892 41.4768 65.0892 41.5553V42.3734H64.809V42.2053H64.7978C64.7754 42.2389 64.7529 42.2726 64.7193 42.295C64.6857 42.3286 64.6521 42.351 64.596 42.3622C64.5848 42.3959 64.5288 42.3959 64.4615 42.3959ZM64.54 42.1829C64.596 42.1829 64.6521 42.1717 64.6857 42.1493C64.7305 42.1269 64.7641 42.0933 64.7866 42.0596C64.809 42.026 64.8202 41.9812 64.8202 41.9363V41.7907C64.809 41.8019 64.7978 41.8019 64.7754 41.8131C64.7529 41.8243 64.7305 41.8243 64.7081 41.8243C64.6857 41.8243 64.6521 41.8355 64.6297 41.8355C64.6072 41.8355 64.5848 41.8467 64.5624 41.8467C64.5176 41.8579 64.484 41.8579 64.4503 41.8803C64.4167 41.8915 64.3943 41.9139 64.3719 41.9363C64.3495 41.9588 64.3383 41.9924 64.3383 42.026C64.3383 42.082 64.3607 42.1157 64.3943 42.1493C64.4279 42.1829 64.4728 42.1829 64.54 42.1829Z" fill="black"/>
<path d="M66.0088 41.1547V41.3788H65.3027V41.1547H66.0088ZM65.482 40.8633H65.7734V42.0064C65.7734 42.0401 65.7846 42.0737 65.7959 42.0961C65.8071 42.1185 65.8183 42.1297 65.8407 42.1409C65.8631 42.1521 65.8855 42.1521 65.9079 42.1521C65.9303 42.1521 65.9416 42.1521 65.9528 42.1521C65.964 42.1521 65.9752 42.1521 65.9864 42.1409L66.0312 42.3651C66.02 42.3651 65.9976 42.3763 65.964 42.3875C65.9303 42.3987 65.8967 42.3987 65.8631 42.3987C65.7959 42.3987 65.7286 42.3875 65.6726 42.3651C65.6165 42.3427 65.5717 42.2978 65.5381 42.253C65.5045 42.2082 65.4933 42.1409 65.4933 42.0625V40.8633H65.482Z" fill="black"/>
<path d="M66.4005 40.9857C66.3557 40.9857 66.3109 40.9745 66.2773 40.9409C66.2436 40.9072 66.2324 40.8736 66.2324 40.8288C66.2324 40.7839 66.2436 40.7503 66.2773 40.7167C66.3109 40.6831 66.3445 40.6719 66.4005 40.6719C66.4566 40.6719 66.4902 40.6831 66.5126 40.7167C66.5462 40.7503 66.5574 40.7839 66.5574 40.8288C66.5574 40.8736 66.5462 40.9072 66.5126 40.9409C66.479 40.9745 66.4454 40.9857 66.4005 40.9857ZM66.2548 42.3754V41.1538H66.5462V42.3754H66.2548Z" fill="black"/>
<path d="M67.364 42.3987C67.2407 42.3987 67.1399 42.3763 67.0502 42.3203C66.9606 42.2642 66.8933 42.197 66.8485 42.0961C66.8037 41.9953 66.7812 41.8944 66.7812 41.7599C66.7812 41.6366 66.8037 41.5246 66.8485 41.4237C66.8933 41.3228 66.9606 41.2556 67.0502 41.1995C67.1399 41.1435 67.2407 41.1211 67.364 41.1211C67.4873 41.1211 67.5882 41.1435 67.6778 41.1995C67.7675 41.2556 67.8347 41.3228 67.8796 41.4237C67.9244 41.5246 67.9468 41.6254 67.9468 41.7599C67.9468 41.8832 67.9244 41.9953 67.8796 42.0961C67.8347 42.197 67.7675 42.2642 67.6778 42.3203C67.5882 42.3763 67.4873 42.3987 67.364 42.3987ZM67.3752 42.1746C67.4425 42.1746 67.4985 42.1522 67.5321 42.1185C67.577 42.0849 67.6106 42.0401 67.633 41.9729C67.6554 41.9168 67.6666 41.8496 67.6666 41.7711C67.6666 41.6927 67.6554 41.6254 67.633 41.5694C67.6106 41.5134 67.577 41.4573 67.5321 41.4237C67.4873 41.3901 67.4313 41.3677 67.3752 41.3677C67.308 41.3677 67.252 41.3901 67.2071 41.4237C67.1623 41.4573 67.1287 41.5134 67.1063 41.5694C67.0838 41.6254 67.0726 41.6927 67.0726 41.7711C67.0726 41.8496 67.0838 41.9168 67.1063 41.9729C67.1287 42.0289 67.1623 42.0849 67.2071 42.1185C67.252 42.1522 67.308 42.1746 67.3752 42.1746Z" fill="black"/>
<path d="M68.4847 41.6562V42.3734H68.1934V41.1518H68.4735V41.3648H68.4847C68.5184 41.2975 68.5632 41.2415 68.6192 41.1967C68.6753 41.1518 68.7537 41.1406 68.8434 41.1406C68.933 41.1406 69.0003 41.163 69.0675 41.1967C69.1348 41.2303 69.1796 41.2863 69.2132 41.3536C69.2469 41.4208 69.2693 41.5105 69.2693 41.6001V42.3734H68.9779V41.645C68.9779 41.5665 68.9555 41.4993 68.9106 41.4544C68.8658 41.4096 68.8098 41.3872 68.7313 41.3872C68.6753 41.3872 68.6417 41.3984 68.5968 41.4208C68.5632 41.4432 68.5296 41.4768 68.5072 41.5105C68.4847 41.5441 68.4847 41.6001 68.4847 41.6562Z" fill="black"/>
<path d="M56.0902 30.7799C56.0902 32.4274 55.5971 34.0412 54.6781 35.4197C53.7591 36.7982 52.459 37.8629 50.9348 38.4906C49.4106 39.1182 47.7295 39.2863 46.1157 38.9613C44.4906 38.6363 43.0112 37.8405 41.8456 36.675C40.6801 35.5094 39.8844 34.0188 39.5593 32.405C39.2343 30.7799 39.4024 29.11 40.0301 27.5858C40.6577 26.0616 41.7336 24.7615 43.1009 23.8425C44.4794 22.9235 46.0932 22.4304 47.7407 22.4416C49.9598 22.4416 52.078 23.327 53.647 24.8848C55.2048 26.4426 56.0902 28.5608 56.0902 30.7799Z" fill="#FFD12F"/>
<path d="M51.3384 32.5959H50.5651L50.6099 31.1837H49.9823V32.3045H49.209V31.1837H47.371L47.2814 31.4415C47.0124 32.2148 46.2839 32.7303 45.4658 32.7303C44.4011 32.7303 43.5381 31.8674 43.5381 30.8027C43.5381 29.738 44.4011 28.875 45.4658 28.875C46.2839 28.875 47.0124 29.3905 47.2814 30.1638L47.371 30.4216H52.1454V31.1949H51.372L51.3384 32.5959ZM46.6313 30.8027C46.6313 30.1639 46.1158 29.6483 45.477 29.6483C44.8381 29.6483 44.3226 30.1639 44.3226 30.8027C44.3226 31.4415 44.8381 31.957 45.477 31.957C46.1158 31.957 46.6313 31.4415 46.6313 30.8027Z" fill="white"/>
<path d="M52.8525 48.2839C52.8525 47.4209 53.5586 46.7148 54.4216 46.7148H84.5918C85.4548 46.7148 86.1609 47.4209 86.1609 48.2839V58.3033C86.1609 59.1662 85.4548 59.8723 84.5918 59.8723H61.6167L58.3217 64.8708L57.8398 59.8723H54.4216C53.5586 59.8723 52.8525 59.1662 52.8525 58.3033V48.2839Z" fill="#E6F5F2"/>
<path d="M58.3331 54.66L58.3779 53.5393L57.4253 54.1445L57.1787 53.7186L58.1762 53.2031L57.1787 52.6875L57.4253 52.2616L58.3779 52.8668L58.3331 51.7461H58.8262L58.7814 52.8668L59.734 52.2616L59.9806 52.6875L58.9831 53.2031L59.9806 53.7186L59.734 54.1445L58.7814 53.5393L58.8262 54.66H58.3331Z" fill="#2D81F7"/>
<path d="M65.5958 54.66L65.6406 53.5393L64.688 54.1445L64.4414 53.7186L65.4389 53.2031L64.4414 52.6875L64.688 52.2616L65.6406 52.8668L65.5958 51.7461H66.0889L66.0441 52.8668L66.9967 52.2616L67.2433 52.6875L66.2458 53.2031L67.2433 53.7186L66.9967 54.1445L66.0441 53.5393L66.0889 54.66H65.5958Z" fill="#2D81F7"/>
<path d="M72.8585 54.66L72.9033 53.5393L71.9507 54.1445L71.7041 53.7186L72.7016 53.2031L71.7041 52.6875L71.9507 52.2616L72.9033 52.8668L72.8585 51.7461H73.3516L73.3068 52.8668L74.2594 52.2616L74.5059 52.6875L73.5085 53.2031L74.5059 53.7186L74.2594 54.1445L73.3068 53.5393L73.3516 54.66H72.8585Z" fill="#2D81F7"/>
<path d="M80.1202 54.66L80.165 53.5393L79.2124 54.1445L78.9658 53.7186L79.9633 53.2031L78.9658 52.6875L79.2124 52.2616L80.165 52.8668L80.1202 51.7461H80.6133L80.5685 52.8668L81.5211 52.2616L81.7677 52.6875L80.7702 53.2031L81.7677 53.7186L81.5211 54.1445L80.5685 53.5393L80.6133 54.66H80.1202Z" fill="#2D81F7"/>
<path d="M90.5665 48.0944C90.5665 48.9685 90.3087 49.8203 89.8156 50.5488C89.3337 51.2773 88.6388 51.8488 87.8319 52.1739C87.025 52.5101 86.1284 52.5997 85.2766 52.4204C84.4137 52.2523 83.6291 51.8264 83.0127 51.21C82.3963 50.5936 81.9705 49.7979 81.8023 48.9461C81.6342 48.0832 81.7239 47.1978 82.0601 46.3909C82.3963 45.5839 82.9679 44.8891 83.6964 44.4071C84.4249 43.9252 85.2766 43.6562 86.1508 43.6562C87.3276 43.6562 88.4483 44.127 89.2777 44.9563C90.107 45.7969 90.5665 46.9176 90.5665 48.0944Z" fill="#2D81F7"/>
<path d="M86.1952 50.4801L86.1615 50.4577C86.1391 50.4464 84.2227 49.5274 84.2227 46.804V46.7368L84.2899 46.7256C84.9511 46.5799 85.3434 46.3782 85.6348 46.2213C85.8589 46.1092 86.0158 46.0195 86.1952 46.0195C86.3745 46.0195 86.5314 46.1092 86.7555 46.2213C87.0469 46.367 87.428 46.5799 88.1004 46.7256L88.1677 46.7368V46.804C88.1677 49.449 86.2512 50.4464 86.24 50.4577L86.1952 50.4801Z" fill="white"/>
<path d="M86.0498 48.9131L85.3773 48.263C85.2876 48.1734 85.2877 48.0389 85.3661 47.9492C85.4558 47.8596 85.5902 47.8596 85.6799 47.938L86.0498 48.2855L86.8343 47.5346C86.9239 47.4449 87.0696 47.4561 87.1481 47.5458C87.2377 47.6354 87.2265 47.7811 87.1369 47.8596L86.0498 48.9131Z" fill="#56CCF2"/>
<defs>
<linearGradient id="paint0_linear_2276_1732" x1="43.4603" y1="100.772" x2="44.6413" y2="101.363" gradientUnits="userSpaceOnUse">
<stop stop-color="#E2E2E2"/>
<stop offset="1"/>
</linearGradient>
<linearGradient id="paint1_linear_2276_1732" x1="46.3714" y1="30.8954" x2="74.6799" y2="84.3161" gradientUnits="userSpaceOnUse">
<stop stop-color="#F2F2F2"/>
<stop offset="0.4792" stop-color="#F7F7F7"/>
<stop offset="1" stop-color="#D2D2D2"/>
</linearGradient>
<linearGradient id="paint2_linear_2276_1732" x1="61.4048" y1="82.9899" x2="61.4048" y2="33.0958" gradientUnits="userSpaceOnUse">
<stop stop-color="white"/>
<stop offset="0.9991" stop-color="white"/>
</linearGradient>
</defs>
</svg>
