<svg width="125" height="125" viewBox="0 0 125 125" fill="none" xmlns="http://www.w3.org/2000/svg">
<path opacity="0.2" d="M118.267 58.1778C118.267 89.3105 93.0304 114.549 61.9007 114.549C30.7708 114.549 5.53418 89.3206 5.53418 58.1882C5.53418 27.0556 30.7813 1.81641 61.9007 1.81641C93.0204 1.81641 118.267 27.0454 118.267 58.1778Z" fill="white" stroke="#D9DADB" stroke-width="2"/>
<path opacity="0.1" d="M61.9016 102.224C86.2244 102.224 105.943 82.5041 105.943 58.1791C105.943 33.8541 86.214 14.1445 61.9016 14.1445C37.5787 14.1445 17.8606 33.8645 17.8606 58.1895C17.8606 82.5145 37.5787 102.224 61.9016 102.224Z" fill="#2D81F7"/>
<path opacity="0.1" d="M61.9532 89.6753C79.3741 89.6753 93.5001 75.5793 93.5001 58.1775C93.5001 40.7757 79.3741 26.6797 61.9532 26.6797C44.5322 26.6797 30.4062 40.7757 30.4062 58.1775C30.4062 75.5793 44.5322 89.6753 61.9532 89.6753Z" fill="#2D81F7"/>
<path d="M31.7287 91.7982C31.9972 91.1974 32.6954 90.9292 33.2969 91.2081L38.4741 93.5575C39.0756 93.8256 39.3334 94.5444 39.0541 95.1451L36.0036 101.528C35.7244 102.118 35.0155 102.365 34.4354 102.086L29.4516 99.7257C28.8716 99.4468 28.6138 98.7603 28.8823 98.181L31.7287 91.7982Z" fill="#4F4F4F"/>
<path d="M79.5378 76.5415C79.323 78.0433 72.395 87.6551 62.728 90.5944C53.061 93.5337 53.4047 95.0999 51.7184 98.6936C49.8387 102.706 43.7592 124.815 43.7592 124.815H16.6487L36.3801 89.5431C36.3801 89.5431 34.9623 83.4499 36.3801 67.7879C37.3683 64.1084 39.495 63.5934 40.3221 57.6826C41.1921 56.5241 42.9644 49.1758 43.1255 48.7252C43.1899 48.5321 43.727 48.221 44.4144 48.221C44.973 48.221 46.5841 49.7443 46.8204 50.8385C48.0234 56.3953 45.8967 58.6481 45.9182 58.8197C46.3371 63.0892 45.9289 66.2646 46.8204 67.1013C46.8527 67.1335 46.9171 67.1228 47.003 67.0584C50.2791 62.3705 58.496 56.5241 60.4079 54.99C62.3198 53.456 76.7451 42.9109 79.1297 41.8167C81.5786 40.6045 83.598 42.3746 80.8375 45.2495C80.1393 45.9468 64.6292 62.0594 64.9944 62.4241C67.83 75.9514 79.7526 75.0396 79.5378 76.5415Z" fill="#FFBE9D"/>
<path d="M48.7535 108.594L30.6011 99.7765L32.3626 95.625L50.558 102.759L48.7535 108.594Z" fill="#F2C2AB"/>
<path d="M32.7171 92.7397C32.8675 92.4179 33.2434 92.2677 33.5656 92.4179L52.1692 100.817C52.47 100.957 52.6204 101.3 52.513 101.622L50.5258 107.275C50.397 107.629 49.9995 107.801 49.6558 107.651L30.483 99.2727C30.15 99.1333 30.0103 98.7471 30.15 98.4145L32.7171 92.7397Z" fill="#333333"/>
<path d="M43.5908 101.974L44.4119 102.32L45.2068 100.443L44.3857 100.096L43.5908 101.974Z" fill="#1F1F1F"/>
<path d="M46.6999 103.265L47.2935 103.516L48.0884 101.638L47.4948 101.388L46.6999 103.265Z" fill="#1F1F1F"/>
<path d="M49.0617 104.339L49.6553 104.59L50.4502 102.713L49.8566 102.462L49.0617 104.339Z" fill="#1F1F1F"/>
<path d="M42.9101 95.8174L47.8832 98.0916C48.0336 98.1667 48.1088 98.3491 48.0228 98.4993C47.9477 98.6387 47.7758 98.7031 47.6254 98.6387L44.2098 97.1154C43.9949 97.0189 43.7371 97.1154 43.6405 97.3407L41.0197 103.477C40.9337 103.691 41.0197 103.938 41.2345 104.035L44.5105 105.536C44.6287 105.59 44.6824 105.73 44.6501 105.848C44.6072 105.987 44.4461 106.062 44.3064 105.998L39.3655 103.809C39.097 103.691 38.9681 103.37 39.097 103.101L42.2012 96.0963C42.3086 95.8067 42.6308 95.6887 42.9101 95.8174Z" fill="white"/>
<path d="M41.8686 99.0273L44.629 100.229L43.8879 101.945L41.1274 100.744L41.8686 99.0273Z" fill="url(#paint0_linear_2276_1304)"/>
<path d="M42.7709 49.5938L41.686 53.9276C41.686 53.9276 42.8783 54.2924 43.4691 53.9705C44.0598 53.638 44.3606 49.7439 42.7709 49.5938Z" fill="#FFEEE3"/>
<path d="M43.4691 53.9692C42.8783 54.3017 41.686 53.9262 41.686 53.9262L41.8042 53.4542C42.2016 53.5401 42.8676 53.2719 43.1361 52.993C43.6839 52.4351 43.8343 51.2337 43.4583 50C44.2424 51.0298 43.9524 53.6902 43.4691 53.9692Z" fill="#FFE2CF"/>
<path d="M79.3126 76.1098L73.9957 74.2969C73.9957 74.2862 73.9957 74.2647 73.9957 74.254C70.5478 72.6878 66.4984 69.5768 64.9947 62.4324C64.984 62.4216 64.984 62.4109 64.9947 62.3787C64.9088 62.2929 74.8765 51.5655 76.1654 50.1173L75.9721 43.7773C72.1483 46.1588 50.5049 61.5634 47.0141 67.0559C46.9282 67.1095 46.8637 67.131 46.8315 67.0988C45.94 66.2621 45.9292 58.7958 45.9292 58.7958C45.9292 58.785 45.9615 58.6885 46.0152 58.5919C46.0474 58.5383 46.6811 57.6587 46.9067 56.4786C46.9174 56.4464 46.9282 56.4143 46.9282 56.3821C46.9496 56.2748 46.9711 56.1783 46.9926 56.0603C47.0248 55.9101 47.0571 55.7384 47.0785 55.5775C47.1108 55.3844 47.1322 55.1913 47.143 54.9875C47.1537 54.9017 47.1537 54.8266 47.1645 54.7408C47.1645 54.6872 47.1752 54.6335 47.1752 54.5799C47.1752 54.537 47.1752 54.4833 47.1859 54.4404C47.1859 54.3975 47.1859 54.3653 47.1859 54.3331C47.1859 54.3224 47.1859 54.3117 47.1859 54.3117V54.301C47.1859 54.2581 47.1859 54.2044 47.1859 54.1615C47.1859 54.0757 47.1859 53.9791 47.1859 53.8933C47.1859 53.8397 47.1859 53.786 47.1859 53.7217C47.1859 53.6144 47.1752 53.5071 47.1752 53.3999C47.1645 53.2389 47.1537 53.0673 47.143 52.8957C47.143 52.842 47.1322 52.7777 47.1322 52.724C47.1322 52.6811 47.1215 52.6382 47.1215 52.5953C47.1215 52.5524 47.1108 52.5095 47.1108 52.4666C47.1 52.4022 47.1 52.3378 47.0893 52.2735C47.0785 52.2198 47.0785 52.1555 47.0678 52.1018C47.0463 51.9838 47.0356 51.8658 47.0141 51.7478C47.0033 51.6727 46.9926 51.5869 46.9711 51.5118L46.9604 51.4582C46.9496 51.3724 46.9282 51.2758 46.9067 51.1793C46.8852 51.0613 46.8637 50.9433 46.8315 50.8253C46.7885 50.6107 46.563 50.2138 46.4341 49.9885C46.853 52.9708 45.4781 59.1283 44.8551 64.0844C43.6951 73.3422 44.8551 83.9623 45.9722 85.5714C48.0345 87.6097 51.6757 89.0042 57.5619 88.1031C58.9689 87.8886 69.4737 87.7277 75.6176 82.203C77.6799 79.9717 78.9474 77.7941 79.5489 76.732C79.6885 76.496 79.5704 76.1957 79.3126 76.1098Z" fill="#F6B797"/>
<path d="M46.6272 71.918C47.4757 73.1945 48.1095 74.5998 48.5928 76.048L48.7754 76.5951C48.8291 76.7775 48.8828 76.9599 48.9365 77.153C49.0332 77.5284 49.1299 77.8932 49.2158 78.2686C49.3769 79.0195 49.4951 79.7812 49.5703 80.5536C49.624 81.3259 49.6562 82.109 49.6025 82.8814C49.538 83.6645 49.4306 84.4476 49.2051 85.1985C49.1514 85.3916 49.0869 85.574 49.0225 85.7564C48.958 85.9387 48.8828 86.1211 48.7969 86.3035C48.711 86.4858 48.625 86.6575 48.5284 86.8291C48.4317 87.0007 48.3243 87.1724 48.2276 87.3333C47.7872 87.9877 47.2502 88.567 46.6165 88.9961L46.5735 88.9531C47.1213 88.4382 47.5832 87.8375 47.9269 87.1724C48.2813 86.5073 48.5284 85.7993 48.7002 85.0698C49.0439 83.6109 49.0547 82.0876 48.9258 80.5965C48.7969 79.1053 48.5069 77.625 48.1095 76.166C47.712 74.7178 47.1965 73.2911 46.5735 71.9287L46.6272 71.918Z" fill="#F6B08D"/>
<path d="M45.9505 58.7787C45.7571 58.7894 45.5745 58.7894 45.3812 58.7894C45.1878 58.7787 45.0052 58.768 44.8119 58.7465C44.6186 58.725 44.4252 58.7143 44.2426 58.6499C44.06 58.5856 43.8774 58.4998 43.7378 58.3496L43.7485 58.3281L44.2963 58.4354C44.4789 58.4676 44.6508 58.5319 44.8334 58.5641C45.016 58.607 45.1986 58.6392 45.3812 58.6607C45.5638 58.6929 45.7571 58.7143 45.9397 58.7358L45.9505 58.7787Z" fill="#F6B08D"/>
<path d="M47.6482 47.0508C47.4226 47.0508 47.2507 47.2331 47.24 47.4477L47.2292 49.7648C47.2292 49.9901 47.4118 50.1617 47.6267 50.1725L47.6482 47.0508Z" fill="#666363"/>
<path d="M47.6264 51.082C47.4009 51.082 47.229 51.2644 47.2183 51.4789L47.2075 53.7961C47.2075 54.0213 47.3901 54.193 47.6049 54.2037L47.6264 51.082Z" fill="#666363"/>
<path d="M75.3164 47.0547C75.542 47.0547 75.7138 47.2371 75.7138 47.4623L75.6923 54.403C75.6923 54.6283 75.5097 54.7999 75.2842 54.7999L75.3164 47.0547Z" fill="#666363"/>
<path d="M75.1126 40.5063C75.1234 37.095 75.1234 35.3893 74.307 34.1879C74.0385 33.8017 73.7163 33.4584 73.3511 33.1795C72.2125 32.3106 70.5906 32.2998 67.3468 32.2998L55.7464 32.2677C52.5026 32.2569 50.8807 32.2569 49.7421 33.1259C49.3769 33.4048 49.0547 33.748 48.7862 34.1342C47.9591 35.325 47.9484 37.0306 47.9376 40.442L47.8195 77.752C47.8087 81.1633 47.8087 82.869 48.6251 84.0705C48.8936 84.4567 49.2158 84.7999 49.581 85.0788C50.7196 85.9478 52.3415 85.9585 55.5853 85.9585L67.1857 85.9907C70.4295 86.0014 72.0514 86.0014 73.19 85.1325C73.5552 84.8536 73.8774 84.5103 74.1459 84.1241C74.973 82.9334 74.9837 81.2277 74.9945 77.8164L75.1126 40.5063Z" fill="#333333"/>
<path fill-rule="evenodd" clip-rule="evenodd" d="M55.5642 32.5805L67.4117 32.6127C69.0765 32.6127 70.2903 32.6234 71.2355 32.7307C72.17 32.838 72.7822 33.0418 73.2763 33.4172C73.6093 33.6747 73.91 33.9858 74.1571 34.3291C74.5115 34.844 74.7049 35.4876 74.8016 36.4531C74.8982 37.4293 74.8982 38.6951 74.8875 40.4223L74.7693 78.0327C74.7693 79.7598 74.7586 81.0256 74.6512 82.0018C74.5438 82.9673 74.3504 83.6109 73.9852 84.1259C73.7382 84.4799 73.4374 84.7802 73.1045 85.0377C72.6104 85.4131 71.9981 85.6062 71.0529 85.7135C70.1077 85.8208 68.8939 85.8101 67.2291 85.8101L55.3816 85.7779C53.7168 85.7779 52.503 85.7672 51.5578 85.6599C50.6233 85.5526 50.0111 85.3488 49.517 84.9733C49.184 84.7159 48.8833 84.4048 48.6362 84.0615C48.2818 83.5466 48.0884 82.9029 47.9918 81.9375C47.8951 80.9613 47.8951 79.6954 47.9058 77.9683L48.024 40.3579C48.024 38.6308 48.0347 37.3649 48.1421 36.3887C48.2496 35.4233 48.4429 34.7796 48.8081 34.2647C49.0551 33.9107 49.3559 33.6103 49.6889 33.3529C50.1829 32.9774 50.7952 32.7843 51.7404 32.6771C52.6856 32.5805 53.8994 32.5805 55.5642 32.5805ZM74.5115 34.0609C75.3493 35.2624 75.3493 36.9895 75.3386 40.4223L75.2097 78.0327C75.199 81.4655 75.199 83.1926 74.3504 84.394C74.0819 84.7802 73.7489 85.1235 73.373 85.4024C72.2129 86.2713 70.5588 86.2713 67.2398 86.2606L55.3924 86.2284C52.0841 86.2177 50.43 86.2177 49.27 85.3381C48.894 85.0591 48.5718 84.7159 48.2925 84.3189C47.4547 83.1067 47.4547 81.3904 47.4655 77.9576L47.5836 40.3472C47.5943 36.9144 47.5943 35.1873 48.4429 33.9858C48.7114 33.5996 49.0444 33.2563 49.4203 32.9774C50.5804 32.1085 52.2345 32.1085 55.5535 32.1192L67.4009 32.1514C70.7092 32.1621 72.3633 32.1621 73.5234 33.0418C73.91 33.3314 74.2323 33.6747 74.5115 34.0609Z" fill="url(#paint1_linear_2276_1304)"/>
<path d="M73.8984 40.1885C73.9091 37.453 73.9091 36.0906 73.2217 35.1251C72.9962 34.814 72.7276 34.5458 72.4161 34.3206C71.4602 33.6233 70.0853 33.6233 67.3463 33.6125L55.6171 33.5804C52.8781 33.5696 51.514 33.5696 50.5473 34.2669C50.2358 34.4922 49.9672 34.7604 49.7417 35.0715C49.0435 36.0262 49.0328 37.3993 49.0328 40.1348L48.9146 78.0778C48.9039 80.8133 48.9039 82.1757 49.5913 83.1411C49.8169 83.4522 50.0854 83.7204 50.3969 83.9457C51.3528 84.643 52.7277 84.643 55.4667 84.6537L67.196 84.6859C69.9349 84.6966 71.2991 84.6966 72.2658 83.9993C72.5772 83.774 72.8458 83.5059 73.0713 83.1948C73.7695 82.24 73.7803 80.8669 73.7803 78.1314L73.8984 40.1885Z" fill="url(#paint2_linear_2276_1304)"/>
<path d="M58.796 34.8779L61.3954 34.8672C61.9325 34.8672 62.3728 35.307 62.3836 35.8434C62.3836 36.3798 61.9432 36.8196 61.4061 36.8303L58.8068 36.841C58.2697 36.841 57.8293 36.4012 57.8186 35.8648C57.8186 35.3285 58.259 34.8886 58.796 34.8779Z" fill="#333333"/>
<path d="M64.9116 35.8441C64.9102 35.3228 64.5003 34.9012 63.9961 34.9025C63.4919 34.9039 63.0842 35.3276 63.0856 35.849C63.087 36.3703 63.4969 36.7919 64.0011 36.7906C64.5054 36.7892 64.913 36.3655 64.9116 35.8441Z" fill="#333333"/>
<path d="M53.4903 70.7188H69.3871C70.3323 70.7188 71.1057 71.4911 71.1057 72.4351C71.1057 73.3792 70.3323 74.1515 69.3871 74.1515H53.4903C52.5451 74.1515 51.7717 73.3792 51.7717 72.4351C51.7717 71.4911 52.5343 70.7188 53.4903 70.7188Z" fill="#FFD12F"/>
<path d="M53.8125 55.375H69.0649C70.1927 55.375 71.1057 56.2868 71.1057 57.4132C71.1057 58.5396 70.1927 59.4514 69.0649 59.4514H53.8125C52.6847 59.4514 51.7717 58.5396 51.7717 57.4132C51.7717 56.2868 52.6847 55.375 53.8125 55.375Z" fill="#F2F2F2"/>
<path d="M80.7624 57.4788L81.0095 57.8328C81.7291 58.8734 81.611 59.8817 81.2136 60.4288C80.8161 60.9759 80.5047 61.2334 79.3661 61.8234L74.8656 64.1191C74.3607 64.5053 72.2877 65.0416 71.3747 63.6042C71.1706 63.1643 70.3221 61.4801 71.9547 60.3216C71.9547 60.3216 74.4359 58.4764 76.6808 57.275C78.3242 56.3953 79.6454 55.6122 80.7624 57.4788Z" fill="#FFBE9D"/>
<path d="M71.5785 62.3055C71.2884 61.7799 71.4603 61.1148 71.9759 60.8037L73.0178 60.1815C74.2315 59.6344 74.7471 59.9777 75.1875 60.75C75.6279 61.5224 75.3593 62.5201 74.5967 62.9813L73.3937 63.7108C72.9748 63.9683 72.4377 63.8288 72.2014 63.3997L71.5785 62.3055Z" fill="#FFEEE3"/>
<path fill-rule="evenodd" clip-rule="evenodd" d="M72.793 63.787C73.04 63.8836 73.3193 63.8621 73.5663 63.7119L74.8767 62.8859C75.6179 62.4139 75.8649 61.427 75.4245 60.6653C75.1023 60.1182 74.5115 59.8393 73.9208 59.9144L74.1463 60.3113C74.7693 61.3626 74.4364 62.7572 73.3945 63.4115L72.793 63.787Z" fill="#FFE2CF"/>
<path d="M80.3962 66.6723L80.5681 67.037C81.0622 68.1098 80.8688 69.0645 80.4822 69.5365C80.0955 70.0085 79.8162 70.2123 78.8065 70.6307L74.7786 71.9824C72.7808 72.5187 72.1578 71.3387 71.9537 70.9525C71.653 70.2874 71.5778 69.0752 72.9097 68.2063C72.8989 68.2063 78.9677 63.5292 80.3962 66.6723Z" fill="#FFBE9D"/>
<path d="M72.2972 70.0937C72.0501 69.5788 72.2757 68.9566 72.7913 68.7099L73.7472 68.2593C74.3917 67.959 75.165 68.2271 75.4765 68.8815C75.7773 69.5252 75.5088 70.2975 74.8535 70.6086L73.7257 71.145C73.2961 71.3488 72.7913 71.1665 72.5979 70.7374L72.2972 70.0937Z" fill="#FFEEE3"/>
<path fill-rule="evenodd" clip-rule="evenodd" d="M73.0278 71.1562C73.2427 71.242 73.5004 71.2421 73.726 71.1348L74.9183 70.5662C75.5627 70.2551 75.8205 69.4935 75.4983 68.8606C75.262 68.3886 74.7571 68.1204 74.2523 68.1418L74.3812 68.3993C74.8646 69.3326 74.4779 70.4589 73.5327 70.9095L73.0278 71.1562Z" fill="#FFE2CF"/>
<path d="M78.2922 78.7538C78.2922 78.7538 78.4533 77.3914 76.8959 77.7668C75.3384 78.1423 73.7917 78.9147 73.7917 78.9147C72.7283 79.2043 71.7509 78.3783 71.375 77.8097L71.2675 77.4128C70.9668 75.8359 77.1 73.7226 77.1 73.7226C78.3352 73.4329 79.2804 74.0659 79.5704 75.1279L79.6778 75.5248C80.129 76.7692 78.6789 78.1852 78.2922 78.7538Z" fill="#FFBE9D"/>
<path d="M71.7395 77.4566C71.5462 77.049 71.718 76.5555 72.1369 76.3517L72.8996 75.987C73.4151 75.7402 74.0274 75.9655 74.2744 76.4804C74.5215 76.9954 74.2959 77.6068 73.7803 77.8536L72.8781 78.2827C72.5451 78.4436 72.1369 78.2934 71.9758 77.9608L71.7395 77.4566Z" fill="#FFEEE3"/>
<path fill-rule="evenodd" clip-rule="evenodd" d="M72.3203 78.2921C72.4922 78.3565 72.6963 78.3565 72.8789 78.2707L73.8241 77.8201C74.3396 77.5734 74.5437 76.9727 74.2859 76.4685C74.0926 76.093 73.6952 75.8785 73.2978 75.8999L73.4052 76.1037C73.7811 76.8439 73.4804 77.745 72.7285 78.1098L72.3203 78.2921Z" fill="#FFE2CF"/>
<path d="M54.382 56.707V57.2219H54.8868V57.4043H54.382V57.9192H54.1779V57.4043H53.6731V57.2219H54.1779V56.707H54.382Z" fill="black"/>
<path d="M55.5097 57.7141C55.542 57.8964 55.6494 57.993 55.8535 57.993C56.1005 57.993 56.2401 57.8213 56.2294 57.3279C56.1649 57.4673 55.9931 57.5531 55.8105 57.5531C55.499 57.5531 55.2627 57.3601 55.2627 56.9953C55.2627 56.6735 55.456 56.4375 55.8212 56.4375C56.2831 56.4375 56.4227 56.7593 56.4227 57.2957C56.4227 57.8642 56.2938 58.1861 55.8427 58.1861C55.499 58.1861 55.3379 57.9715 55.3164 57.7248H55.5097V57.7141ZM56.1972 57.0061C56.1972 56.77 56.0683 56.6091 55.8212 56.6091C55.5957 56.6091 55.456 56.7593 55.456 56.9846C55.456 57.1991 55.5742 57.3601 55.832 57.3601C56.0468 57.3708 56.1972 57.2421 56.1972 57.0061Z" fill="black"/>
<path d="M56.8845 56.6618H56.6589V56.4688H57.0993V58.1744H56.8845V56.6618Z" fill="black"/>
<path d="M58.5063 57.6903L58.2055 58.173H57.98L58.3989 57.5294L57.98 56.875H58.227L58.5385 57.3577L58.8285 56.875H59.0541L58.6352 57.5186L59.0541 58.173H58.807L58.5063 57.6903Z" fill="black"/>
<path d="M59.6455 57.6903L59.3447 58.173H59.1191L59.538 57.5294L59.1191 56.875H59.3662L59.6777 57.3577L59.9677 56.875H60.1933L59.7743 57.5186L60.1933 58.173H59.9462L59.6455 57.6903Z" fill="black"/>
<path d="M60.7731 57.6903L60.4724 58.173H60.2468L60.6657 57.5294L60.2468 56.875H60.4939L60.8054 57.3577L61.0954 56.875H61.3209L60.902 57.5186L61.3209 58.173H61.0739L60.7731 57.6903Z" fill="black"/>
<path d="M61.9013 57.6903L61.6006 58.173H61.375L61.7939 57.5294L61.375 56.875H61.622L61.9335 57.3577L62.2235 56.875H62.4491L62.0302 57.5186L62.4491 58.173H62.2128L61.9013 57.6903Z" fill="black"/>
<path d="M63.04 57.6903L62.7392 58.173H62.5137L62.9326 57.5294L62.5137 56.875H62.7607L63.0722 57.3577L63.3622 56.875H63.5878L63.1689 57.5186L63.5878 58.173H63.3407L63.04 57.6903Z" fill="black"/>
<path d="M64.1667 57.6903L63.8659 58.173H63.6404L64.0593 57.5294L63.6404 56.875H63.8874L64.1989 57.3577L64.4889 56.875H64.7145L64.2956 57.5186L64.7145 58.173H64.4674L64.1667 57.6903Z" fill="black"/>
<path d="M65.3054 57.6903L65.0046 58.173H64.7791L65.198 57.5294L64.7791 56.875H65.0261L65.3376 57.3577L65.6276 56.875H65.8532L65.4343 57.5186L65.8532 58.173H65.6061L65.3054 57.6903Z" fill="black"/>
<path d="M66.4335 57.6903L66.1328 58.173H65.9072L66.3261 57.5294L65.9072 56.875H66.1543L66.4658 57.3577L66.7558 56.875H66.9813L66.5624 57.5186L66.9813 58.173H66.7343L66.4335 57.6903Z" fill="black"/>
<path d="M67.5615 57.6903L67.2607 58.173H67.0459L67.4648 57.5294L67.0459 56.875H67.2929L67.6044 57.3577L67.8944 56.875H68.12L67.7011 57.5186L68.12 58.173H67.873L67.5615 57.6903Z" fill="black"/>
<path d="M68.6997 57.6903L68.3989 58.173H68.1733L68.5922 57.5294L68.1733 56.875H68.4204L68.7319 57.3577L69.0219 56.875H69.2474L68.8285 57.5186L69.2474 58.173H69.0004L68.6997 57.6903Z" fill="black"/>
<path d="M57.4326 72.9224C57.3144 72.8044 57.2607 72.6649 57.2607 72.4826C57.2607 72.3002 57.3144 72.1607 57.4326 72.0427C57.5508 71.9247 57.6904 71.8711 57.8622 71.8711C57.9911 71.8711 58.0985 71.9033 58.206 71.9676C58.3026 72.032 58.3778 72.1178 58.4208 72.2358H58.1845C58.12 72.1178 58.0126 72.0535 57.8622 72.0535C57.7441 72.0535 57.6474 72.0964 57.5722 72.1715C57.497 72.2466 57.4541 72.3538 57.4541 72.4826C57.4541 72.6113 57.497 72.7186 57.5722 72.7937C57.6474 72.8687 57.7441 72.9117 57.8622 72.9117C58.0126 72.9117 58.12 72.8473 58.1845 72.7293H58.4208C58.3778 72.8473 58.3026 72.9331 58.206 72.9975C58.1093 73.0618 57.9911 73.094 57.8622 73.094C57.7011 73.094 57.5508 73.0404 57.4326 72.9224Z" fill="#333333"/>
<path d="M59.0661 73.0963C58.9265 73.0963 58.8191 73.0534 58.7224 72.9568C58.6365 72.871 58.5935 72.753 58.5935 72.6028C58.5935 72.4527 58.6365 72.3346 58.7331 72.2488C58.8298 72.163 58.9372 72.1094 59.0769 72.1094C59.2165 72.1094 59.3239 72.1523 59.4206 72.2488C59.5172 72.3346 59.5602 72.4527 59.5602 72.6028C59.5602 72.753 59.5172 72.871 59.4206 72.9568C59.3132 73.0534 59.2058 73.0963 59.0661 73.0963ZM59.2702 72.8496C59.3239 72.7959 59.3561 72.7101 59.3561 72.6136C59.3561 72.517 59.3239 72.4312 59.2702 72.3776C59.2165 72.3239 59.152 72.2917 59.0661 72.2917C58.9909 72.2917 58.9157 72.3239 58.862 72.3776C58.8083 72.4312 58.7761 72.517 58.7761 72.6136C58.7761 72.7208 58.7976 72.7959 58.8513 72.8496C58.905 72.9032 58.9694 72.9354 59.0446 72.9354C59.1413 72.9354 59.2057 72.9032 59.2702 72.8496Z" fill="#333333"/>
<path d="M59.946 72.1435V72.2937C60.0105 72.1864 60.1071 72.1328 60.2468 72.1328C60.3542 72.1328 60.4401 72.165 60.5153 72.2401C60.5905 72.3152 60.6227 72.4117 60.6227 72.5405V73.0983H60.4294V72.5726C60.4294 72.4868 60.4079 72.4225 60.3649 72.3795C60.322 72.3366 60.2683 72.3152 60.1931 72.3152C60.1179 72.3152 60.0642 72.3366 60.0212 72.3795C59.9782 72.4225 59.9568 72.4868 59.9568 72.5726V73.0983H59.7419V72.1543H59.946V72.1435Z" fill="#333333"/>
<path d="M61.3217 72.3032H61.0962V72.8288C61.0962 72.861 61.1069 72.8932 61.1176 72.9039C61.1391 72.9146 61.1606 72.9254 61.2036 72.9254H61.3217V73.0863H61.1713C60.9887 73.0863 60.9028 73.0005 60.9028 72.8288V72.3032H60.7954V72.1423H60.9028V71.9062H61.0962V72.1423H61.3217V72.3032Z" fill="#333333"/>
<path d="M61.7292 71.8836C61.7292 71.9158 61.7185 71.948 61.697 71.9694C61.6755 71.9909 61.6433 72.0016 61.6111 72.0016C61.5789 72.0016 61.5466 71.9909 61.5251 71.9694C61.5037 71.948 61.4929 71.9158 61.4929 71.8836C61.4929 71.8514 61.5037 71.8193 61.5251 71.7978C61.5466 71.7764 61.5789 71.7656 61.6111 71.7656C61.6433 71.7656 61.6755 71.7764 61.697 71.7978C61.7077 71.8193 61.7292 71.8514 61.7292 71.8836ZM61.5037 73.0851V72.1411H61.697V73.0851H61.5037Z" fill="#333333"/>
<path d="M62.1474 72.1435V72.2937C62.2119 72.1864 62.3086 72.1328 62.4482 72.1328C62.5556 72.1328 62.6415 72.165 62.7167 72.2401C62.7919 72.3152 62.8241 72.4117 62.8241 72.5405V73.0983H62.6308V72.5726C62.6308 72.4868 62.6093 72.4225 62.5663 72.3795C62.5234 72.3366 62.4697 72.3152 62.3945 72.3152C62.3193 72.3152 62.2656 72.3366 62.2226 72.3795C62.1797 72.4225 62.1582 72.4868 62.1582 72.5726V73.0983H61.9648V72.1543H62.1474V72.1435Z" fill="#333333"/>
<path d="M63.7265 72.1435H63.9198V73.0876H63.7265V72.9374C63.662 73.0446 63.5654 73.0983 63.4257 73.0983C63.3183 73.0983 63.2324 73.0661 63.1572 72.991C63.0928 72.9159 63.0498 72.8194 63.0498 72.6906V72.1328H63.2431V72.6585C63.2431 72.7443 63.2646 72.8086 63.3076 72.8516C63.3506 72.8945 63.4043 72.9159 63.4794 72.9159C63.5546 72.9159 63.6083 72.8945 63.6513 72.8516C63.6943 72.8086 63.7158 72.7443 63.7158 72.6585V72.1435H63.7265Z" fill="#333333"/>
<path d="M64.5866 73.0983C64.447 73.0983 64.3396 73.0554 64.2537 72.9696C64.1677 72.8837 64.1248 72.7657 64.1248 72.6155C64.1248 72.4654 64.1677 72.3474 64.2537 72.2615C64.3396 72.1757 64.4577 72.1328 64.5866 72.1328C64.7263 72.1328 64.8337 72.1757 64.9196 72.2615C65.0055 72.3474 65.0485 72.4546 65.0485 72.5941C65.0485 72.6263 65.0485 72.6585 65.0377 72.6906H64.3074C64.3074 72.7657 64.3396 72.8301 64.3825 72.8837C64.4363 72.9266 64.49 72.9481 64.5651 72.9481C64.6726 72.9481 64.7477 72.9052 64.7907 72.8194H65.0055C64.9733 72.9052 64.9196 72.9803 64.8444 73.0339C64.7692 73.0876 64.694 73.0983 64.5866 73.0983ZM64.7692 72.3581C64.7155 72.3152 64.6618 72.2937 64.5866 72.2937C64.5114 72.2937 64.4577 72.3152 64.404 72.3581C64.3503 72.401 64.3288 72.4654 64.3181 72.5405H64.8444C64.8444 72.4654 64.8229 72.4117 64.7692 72.3581Z" fill="#333333"/>
<defs>
<linearGradient id="paint0_linear_2276_1304" x1="43.4589" y1="100.772" x2="44.6398" y2="101.363" gradientUnits="userSpaceOnUse">
<stop stop-color="#E2E2E2"/>
<stop offset="1"/>
</linearGradient>
<linearGradient id="paint1_linear_2276_1304" x1="46.3709" y1="30.8954" x2="74.6794" y2="84.3161" gradientUnits="userSpaceOnUse">
<stop stop-color="#F2F2F2"/>
<stop offset="0.4792" stop-color="#F7F7F7"/>
<stop offset="1" stop-color="#D2D2D2"/>
</linearGradient>
<linearGradient id="paint2_linear_2276_1304" x1="61.4031" y1="82.9899" x2="61.4031" y2="33.0958" gradientUnits="userSpaceOnUse">
<stop stop-color="white"/>
<stop offset="0.9991" stop-color="white"/>
</linearGradient>
</defs>
</svg>
