<svg width="19" height="19" viewBox="0 0 19 19" fill="none" xmlns="http://www.w3.org/2000/svg">
<g clip-path="url(#clip0_305_1301)">
<path d="M17.7737 6.20898C18.2272 5.75547 18.4803 5.15078 18.4803 4.50742C18.4803 3.86406 18.2307 3.25938 17.7737 2.80586L15.9807 1.01289C15.5237 0.552344 14.919 0.302734 14.2756 0.302734C13.6323 0.302734 13.0276 0.552344 12.574 1.00938L1.39084 12.1926C0.765062 12.8184 0.434594 13.6797 0.483812 14.5621L0.480297 17.4238C0.480297 17.6559 0.571703 17.8809 0.736937 18.0461C0.902172 18.2113 1.12366 18.3027 1.3592 18.3027L4.22092 18.2992C5.10334 18.3484 5.96467 18.018 6.59045 17.3922C6.93499 17.0477 6.93499 16.4922 6.59045 16.1477C6.24592 15.8031 5.69045 15.8031 5.34592 16.1477C5.0717 16.4219 4.6885 16.566 4.30178 16.5414C4.2842 16.5414 4.26311 16.5379 4.24553 16.5379L2.23811 16.5449L2.24162 14.5375C2.24162 14.5199 2.24162 14.4988 2.23811 14.4813C2.2135 14.0945 2.35764 13.7113 2.63186 13.4371L11.9518 4.11719L14.6658 6.83125L7.66272 13.8344C7.31819 14.1789 7.31819 14.7344 7.66272 15.0789C8.00725 15.4234 8.56272 15.4234 8.90725 15.0789L17.7737 6.20898ZM13.1963 2.87266L13.8186 2.25039C13.9416 2.12734 14.1033 2.06055 14.2791 2.06055C14.4514 2.06055 14.6166 2.12734 14.7397 2.25039L16.5326 4.04336C16.7858 4.29648 16.7858 4.71133 16.5326 4.96445L15.9104 5.58672L13.1963 2.87266Z" fill="#206CFF"/>
<path d="M17.6016 16.5449H9.67383C9.18867 16.5449 8.79492 16.9387 8.79492 17.4238C8.79492 17.909 9.18867 18.3027 9.67383 18.3027H17.6016C18.0867 18.3027 18.4805 17.909 18.4805 17.4238C18.4805 16.9387 18.0867 16.5449 17.6016 16.5449Z" fill="#206CFF"/>
</g>
<defs>
<clipPath id="clip0_305_1301">
<rect width="18" height="18" fill="white" transform="translate(0.480469 0.302734)"/>
</clipPath>
</defs>
</svg>
