<svg width="80" height="37" viewBox="0 0 80 37" fill="none" xmlns="http://www.w3.org/2000/svg">
<g filter="url(#filter0_d_783_7129)">
<rect x="3" y="1" width="73.9831" height="31" rx="15.5" fill="url(#paint0_radial_783_7129)"/>
<rect x="3.5" y="1.5" width="72.9831" height="30" rx="15" stroke="#E74B3E"/>
</g>
<path d="M14.1692 22.5L16.101 10.8636H21.1238C21.9874 10.8636 22.7147 11.0341 23.3056 11.375C23.8965 11.7159 24.3207 12.1951 24.5783 12.8125C24.8359 13.4299 24.8965 14.1515 24.7601 14.9773C24.6238 15.8182 24.3207 16.5436 23.851 17.1534C23.3851 17.7595 22.7904 18.2273 22.0669 18.5568C21.3472 18.8826 20.5404 19.0455 19.6465 19.0455H16.6465L17.0556 16.5909H19.4192C19.798 16.5909 20.1313 16.5265 20.4192 16.3977C20.7071 16.2652 20.94 16.0795 21.1181 15.8409C21.2961 15.5985 21.4116 15.3106 21.4647 14.9773C21.5177 14.6439 21.4931 14.3598 21.3908 14.125C21.2923 13.8864 21.1219 13.7045 20.8794 13.5795C20.6408 13.4508 20.3359 13.3864 19.9647 13.3864H18.851L17.3283 22.5H14.1692ZM24.6692 22.5L26.601 10.8636H31.6238C32.4874 10.8636 33.2166 11.0208 33.8113 11.3352C34.406 11.6496 34.834 12.1023 35.0953 12.6932C35.3567 13.2841 35.4192 13.9924 35.2828 14.8182C35.1465 15.6515 34.8453 16.3542 34.3794 16.9261C33.9173 17.4943 33.3283 17.9261 32.6124 18.2216C31.9003 18.5133 31.101 18.6591 30.2147 18.6591H27.2147L27.6238 16.2045H29.9874C30.3586 16.2045 30.6844 16.1591 30.9647 16.0682C31.245 15.9735 31.4722 15.8258 31.6465 15.625C31.8207 15.4205 31.9344 15.1515 31.9874 14.8182C32.0404 14.4848 32.0139 14.214 31.9078 14.0057C31.8018 13.7936 31.6257 13.6383 31.3794 13.5398C31.1332 13.4375 30.8283 13.3864 30.4647 13.3864H29.351L27.8283 22.5H24.6692ZM32.3738 17.1591L34.3965 22.5H30.9647L29.0101 17.1591H32.3738ZM40.6039 10.8636L38.6721 22.5H35.513L37.4448 10.8636H40.6039ZM42.101 10.8636H46.0328L47.6465 17.4545H47.7828L51.5783 10.8636H55.5101L53.5783 22.5H50.4874L51.601 15.7727H51.5101L47.8283 22.4091H45.9647L44.4874 15.7273H44.3965L43.2601 22.5H40.1692L42.101 10.8636ZM55.0755 22.5L57.0073 10.8636H65.3936L64.9618 13.4091H59.7346L59.4164 15.4091H64.2118L63.78 17.9545H58.9846L58.6664 19.9545H63.8709L63.4391 22.5H55.0755Z" fill="white"/>
<defs>
<filter id="filter0_d_783_7129" x="0.7" y="0.7" width="78.5824" height="35.6" filterUnits="userSpaceOnUse" color-interpolation-filters="sRGB">
<feFlood flood-opacity="0" result="BackgroundImageFix"/>
<feColorMatrix in="SourceAlpha" type="matrix" values="0 0 0 0 0 0 0 0 0 0 0 0 0 0 0 0 0 0 127 0" result="hardAlpha"/>
<feOffset dy="2"/>
<feGaussianBlur stdDeviation="1.15"/>
<feComposite in2="hardAlpha" operator="out"/>
<feColorMatrix type="matrix" values="0 0 0 0 0 0 0 0 0 0 0 0 0 0 0 0 0 0 0.15 0"/>
<feBlend mode="normal" in2="BackgroundImageFix" result="effect1_dropShadow_783_7129"/>
<feBlend mode="normal" in="SourceGraphic" in2="effect1_dropShadow_783_7129" result="shape"/>
</filter>
<radialGradient id="paint0_radial_783_7129" cx="0" cy="0" r="1" gradientUnits="userSpaceOnUse" gradientTransform="translate(39.9915 16.5) rotate(90) scale(15.5 36.9915)">
<stop stop-color="#2D81F7"/>
<stop offset="1" stop-color="#336FFB"/>
</radialGradient>
</defs>
</svg>
