<svg width="27" height="21" viewBox="0 0 27 21" fill="none" xmlns="http://www.w3.org/2000/svg">
<path d="M7.10449 11.8834L9.86974 19.557C9.86974 19.557 10.2154 20.2828 10.5956 20.2828C10.9758 20.2828 16.4718 14.545 16.4718 14.545L22.5899 2.68896L7.20819 9.91317L7.10449 11.8834Z" fill="#C8DAEA"/>
<path d="M10.7675 13.8535L10.249 19.4877C10.249 19.4877 10.0416 21.216 11.7699 19.4877C13.4981 17.7594 15.1573 16.4114 15.1573 16.4114L10.7675 13.8535Z" fill="#A9C6D8"/>
<path d="M7.13861 12.1597L1.43529 10.2932C1.43529 10.2932 0.743982 10.0167 0.985941 9.39449C1.02051 9.25623 1.1242 9.15253 1.40073 8.9797C2.67965 8.11556 24.767 0.165487 24.767 0.165487C24.767 0.165487 25.3892 -0.0419065 25.7694 0.0963557C25.9423 0.165487 26.046 0.234618 26.1497 0.511143C26.1842 0.614839 26.2188 0.822233 26.1842 1.02963C26.1842 1.16789 26.1497 1.30615 26.1497 1.51354C26.0114 3.69117 22.0018 19.9024 22.0018 19.9024C22.0018 19.9024 21.7598 20.8357 20.8957 20.8703C20.5846 20.8703 20.2044 20.8011 19.755 20.4209C18.0613 18.9691 12.2197 15.0287 10.9063 14.1645C10.8371 14.13 10.8026 14.0608 10.8026 13.9917C10.768 13.888 10.8717 13.7843 10.8717 13.7843C10.8717 13.7843 21.0685 4.72814 21.3451 3.76031C21.3796 3.69117 21.2759 3.65661 21.1722 3.69117C20.4809 3.93313 8.76319 11.3647 7.4497 12.1597C7.38057 12.1943 7.13861 12.1597 7.13861 12.1597Z" fill="#FCFCFC"/>
</svg>
