<svg width="31" height="31" viewBox="0 0 31 31" fill="none" xmlns="http://www.w3.org/2000/svg">
<rect x="0.8125" y="0.527344" width="30" height="30" rx="6" fill="#29A71A"/>
<path d="M21.8699 9.46601C20.4398 8.02164 18.5406 7.13586 16.5149 6.96843C14.4893 6.80101 12.4704 7.36296 10.8226 8.55294C9.17476 9.74291 8.00641 11.4826 7.52827 13.4581C7.05013 15.4337 7.29368 17.515 8.215 19.3268L7.31061 23.7176C7.30123 23.7613 7.30096 23.8064 7.30983 23.8502C7.3187 23.894 7.33652 23.9355 7.36216 23.9722C7.39972 24.0277 7.45335 24.0705 7.51587 24.0948C7.57838 24.1191 7.64682 24.1237 7.71204 24.108L12.0153 23.0881C13.822 23.9861 15.8887 24.214 17.8476 23.7312C19.8066 23.2484 21.5307 22.0864 22.7133 20.4517C23.8958 18.817 24.4601 16.8159 24.3056 14.8042C24.1512 12.7926 23.2881 10.901 21.8699 9.46601ZM20.5281 20.175C19.5386 21.1617 18.2645 21.813 16.8852 22.0372C15.5059 22.2614 14.0911 22.0471 12.84 21.4246L12.2402 21.1278L9.60204 21.7526L9.60985 21.7198L10.1565 19.0644L9.8629 18.4849C9.22367 17.2295 8.99817 15.804 9.21871 14.4126C9.43925 13.0212 10.0945 11.7352 11.0906 10.739C12.3422 9.48779 14.0396 8.78488 15.8094 8.78488C17.5792 8.78488 19.2765 9.48779 20.5281 10.739C20.5388 10.7512 20.5503 10.7627 20.5625 10.7734C21.7986 12.0279 22.4887 13.7201 22.4822 15.4813C22.4758 17.2424 21.7734 18.9296 20.5281 20.175Z" fill="white"/>
<path d="M20.2935 18.2271C19.9701 18.7363 19.4594 19.3596 18.8174 19.5142C17.6928 19.786 15.9668 19.5236 13.8191 17.5211L13.7925 17.4977C11.9041 15.7467 11.4136 14.2894 11.5323 13.1335C11.5979 12.4775 12.1446 11.8839 12.6054 11.4965C12.6782 11.4344 12.7646 11.3901 12.8576 11.3673C12.9507 11.3445 13.0477 11.3437 13.1411 11.3651C13.2344 11.3865 13.3215 11.4295 13.3953 11.4905C13.469 11.5516 13.5275 11.6291 13.566 11.7168L14.2611 13.2788C14.3063 13.3801 14.323 13.4917 14.3095 13.6018C14.296 13.7119 14.2528 13.8162 14.1846 13.9036L13.8331 14.3597C13.7577 14.4538 13.7122 14.5684 13.7025 14.6887C13.6927 14.8089 13.7192 14.9294 13.7784 15.0344C13.9752 15.3796 14.447 15.8873 14.9702 16.3574C15.5575 16.8885 16.2089 17.3743 16.6213 17.5399C16.7316 17.5849 16.8529 17.5959 16.9696 17.5714C17.0862 17.5469 17.1928 17.4881 17.2757 17.4024L17.6834 16.9916C17.7621 16.914 17.8599 16.8587 17.9669 16.8313C18.0739 16.8038 18.1863 16.8053 18.2926 16.8354L19.9436 17.304C20.0347 17.3319 20.1181 17.3803 20.1876 17.4455C20.2571 17.5106 20.3108 17.5908 20.3446 17.6799C20.3784 17.769 20.3913 17.8646 20.3824 17.9594C20.3736 18.0543 20.3432 18.1459 20.2935 18.2271Z" fill="white"/>
</svg>
