<svg width="25" height="24" viewBox="0 0 25 24" fill="none" xmlns="http://www.w3.org/2000/svg">
<path d="M20.7336 3.42134C18.7196 1.46545 16.045 0.26596 13.1922 0.0392413C10.3394 -0.187477 7.49623 0.573498 5.17556 2.18491C2.85489 3.79631 1.20947 6.15207 0.536096 8.82726C-0.137277 11.5024 0.205728 14.321 1.50324 16.7744L0.22957 22.7201C0.216354 22.7793 0.21598 22.8405 0.22847 22.8998C0.240961 22.9591 0.266048 23.0153 0.302162 23.0649C0.355066 23.1401 0.430584 23.198 0.51863 23.2309C0.606677 23.2638 0.703061 23.2701 0.794911 23.2489L6.85528 21.8677C9.39968 23.0837 12.3102 23.3923 15.0691 22.7386C17.8279 22.0849 20.256 20.5112 21.9214 18.2976C23.5868 16.0841 24.3815 13.3742 24.164 10.6501C23.9465 7.92605 22.7309 5.36453 20.7336 3.42134ZM18.844 17.9229C17.4505 19.2591 15.6561 20.1411 13.7137 20.4446C11.7712 20.7482 9.77863 20.4581 8.01676 19.615L7.17205 19.2132L3.45664 20.0592L3.46763 20.0148L4.23756 16.419L3.824 15.6343C2.92376 13.9343 2.60619 12.0039 2.91678 10.1197C3.22737 8.23555 4.15018 6.49422 5.55302 5.1452C7.31571 3.45083 9.7061 2.49899 12.1985 2.49899C14.691 2.49899 17.0814 3.45083 18.844 5.1452C18.8591 5.16176 18.8752 5.1773 18.8924 5.19174C20.6333 6.89047 21.6051 9.18207 21.596 11.5669C21.587 13.9518 20.5977 16.2365 18.844 17.9229Z" fill="white"/>
<path d="M18.5144 15.2859C18.059 15.9754 17.3397 16.8194 16.4356 17.0288C14.8517 17.3968 12.421 17.0415 9.3963 14.3298L9.35891 14.2981C6.69938 11.927 6.00865 9.95355 6.17584 8.38833C6.26823 7.49996 7.03815 6.69619 7.68708 6.17163C7.78968 6.08744 7.91134 6.02749 8.04233 5.99659C8.17333 5.96569 8.31003 5.9647 8.4415 5.99368C8.57297 6.02266 8.69556 6.08082 8.79947 6.16351C8.90339 6.24619 8.98574 6.35111 9.03994 6.46987L10.0188 8.58504C10.0824 8.72218 10.106 8.8734 10.087 9.02245C10.068 9.1715 10.0072 9.31277 9.91105 9.4311L9.4161 10.0487C9.3099 10.1763 9.24582 10.3314 9.23209 10.4943C9.21837 10.6571 9.25564 10.8202 9.33911 10.9625C9.61628 11.4299 10.2806 12.1174 11.0175 12.754C11.8446 13.4732 12.762 14.131 13.3427 14.3552C13.4981 14.4163 13.6689 14.4311 13.8332 14.398C13.9975 14.3648 14.1477 14.2851 14.2644 14.1691L14.8385 13.6128C14.9493 13.5077 15.0871 13.4328 15.2378 13.3957C15.3885 13.3585 15.5468 13.3604 15.6965 13.4013L18.0216 14.0358C18.1499 14.0736 18.2674 14.1392 18.3653 14.2274C18.4632 14.3156 18.5388 14.4242 18.5864 14.5448C18.6339 14.6654 18.6521 14.7949 18.6397 14.9234C18.6272 15.0518 18.5843 15.1758 18.5144 15.2859Z" fill="white"/>
</svg>
